<svg id="Layer_1" data-name="Layer 1" xmlns="http://www.w3.org/2000/svg" viewBox="0 0 595.28 841.89"><defs><style>.cls-1{fill:#e61838;}.cls-2{fill:#fff;}.cls-14,.cls-15,.cls-3,.cls-9{fill:none;}.cls-3,.cls-9{stroke:#231f20;}.cls-3{stroke-miterlimit:10;stroke-width:3px;}.cls-4{fill:#231f20;}.cls-5{fill:#fccb7f;}.cls-6{fill:#ea8048;}.cls-7{fill:#ed1c24;}.cls-8{fill:#ffb5a3;}.cls-14,.cls-15,.cls-9{stroke-linecap:round;stroke-linejoin:round;}.cls-9{stroke-width:2px;}.cls-10{fill:#bc2820;}.cls-11{fill:#e9e6c3;}.cls-12{fill:#9b2421;}.cls-13{fill:#d97e55;}.cls-14{stroke:#762822;stroke-width:4.26px;}.cls-15{stroke:#ffc38d;stroke-width:5.92px;}</style></defs><title>icons</title><path class="cls-1" d="M375.89,206.16C446.06,238.21,495,310.22,495,393.92S446.06,549.64,375.89,581.68V206.16Z"/><path class="cls-2" d="M375.89,206.16V581.68a197.15,197.15,0,0,1-163.51,0V206.16A197.15,197.15,0,0,1,375.89,206.16Z"/><path class="cls-1" d="M212.38,206.16V581.68c-70.17-32-119.09-104-119.09-187.76S142.21,238.21,212.38,206.16Z"/><path class="cls-3" d="M212.38,206.16C142.21,238.21,93.29,310.22,93.29,393.92s48.92,155.72,119.09,187.76"/><path class="cls-3" d="M375.89,581.68c70.17-32,119.09-104,119.09-187.76S446.06,238.21,375.89,206.16"/><path class="cls-3" d="M375.89,206.16a197.15,197.15,0,0,0-163.51,0V581.68a197.15,197.15,0,0,0,163.51,0V206.16Z"/><path class="cls-4" d="M265.46,296.71A75.39,75.39,0,0,1,293,292.43a73.19,73.19,0,0,1,55.18,26.36,72.31,72.31,0,0,1,9.73,13.75,60.47,60.47,0,0,1,4.32,10.17c4.78,14.8,5.37,34.73,5.53,39.94,0.07,2.51.07,4.71,0.34,8.5,0.71,9.92,2.48,18.1,3.92,25.94,1,5.37,2.39,11.64,4.69,20,4.3,15.59,9.5,24.16,11.09,41.74a112.67,112.67,0,0,1-1.71,32.11c-2.3,12.53-5.36,18.16-7.77,21.72-3.55,5.25-6.32,9.32-11.54,11.44-9.16,3.72-15.07-2.86-30.19-1.05-22,2.63-22,15.92-42.67,19.26-20.94,3.39-38.33-7.48-50.35-15-12.74-8-25-15.59-33.28-33.18-1.76-3.71-11.27-23.81-7.68-47.09,2.74-17.76,13.19-38.41,14.51-54.58,1.06-13-1-16.59-2-26h0a71.83,71.83,0,0,1-.56-10.43c1-38,23.86-61.31,23.86-61.31A71.33,71.33,0,0,1,265.46,296.71Z"/><rect class="cls-5" x="233.09" y="310.51" width="116.69" height="144.49" rx="53.35" ry="53.35"/><path class="cls-4" d="M264.74,298.93c-1.41,1.44-12.09,12.58-9.36,25,3.66,16.61,28.25,21,34.75,21,2,0,4.08-.2,4.08-0.2,6.68-1.67,11.66-3,13.1-3.65,7.4-3.21,23.51-3.73,29.63,3.25,6,6.81-3.54,13.93.82,33.44,0,0,2.66,12.18,1.35,18.74a31.32,31.32,0,0,1-3.74,9.8c1.11,0.54,24.87-26.19,20.34-55.46-3-19.44-17.64-32.41-22.78-36.7C305.56,291.25,270.39,297.78,264.74,298.93Z"/><circle class="cls-4" cx="266.66" cy="374.51" r="8.24"/><circle class="cls-4" cx="319.06" cy="374.51" r="8.24"/><path class="cls-6" d="M300.16,395.42c0,1.66-3.13,3-7,3s-7-1.35-7-3"/><path class="cls-7" d="M308.08,424.06c0,6.21-6.52,11.24-14.56,11.24s-14.56-5-14.56-11.24"/><path class="cls-7" d="M279,424.51c-1-4.27,0-8.33,2.63-10.14a7.44,7.44,0,0,1,4.61-1.06c3.86,0.26,4.27,3,7.39,3.16s4.11-2.77,8.13-2.54a7,7,0,0,1,3.53,1.07c2.53,1.72,3.57,5.47,2.82,9.5"/><path class="cls-2" d="M282,422.51c0.26-1.79,7-2.44,9.68-2.56,6.05-.28,13.46,1.19,13.69,3.29,0.17,1.55-3.58,3.15-6.1,3.78C291.29,429,281.73,424.72,282,422.51Z"/><rect class="cls-8" x="312.54" y="387.47" width="19.48" height="9.45" rx="4.33" ry="4.33"/><rect class="cls-8" x="254.1" y="387.47" width="19.48" height="9.45" rx="4.33" ry="4.33"/><rect class="cls-5" x="274.91" y="436.11" width="35.91" height="46.1" rx="11.44" ry="11.44"/><path class="cls-5" d="M227.57,530.42c-0.13-4.94-.48-34.57,19.52-51.69,13.17-11.27,28.25-11.21,45.76-11.14,18.38,0.08,34.5.14,47.9,12.7,18.49,17.31,17.62,45.08,17.39,50.13"/><path class="cls-9" d="M254.16,367.07c0.25-.39,5.07-7.74,13.66-7.53A16.07,16.07,0,0,1,279.17,365"/><path class="cls-9" d="M331.6,366.42c-0.27-.38-5.45-7.47-14-6.84a16.07,16.07,0,0,0-11.06,6"/><path class="cls-4" d="M250.49,310c4.08-.23,8.09,4.13,9.79,7.34,2.09,3.95,1.13,7.38-1.38,22-2.47,14.41-1.95,13.68-2.7,15.48C251.11,367,242,368.7,242.5,374.83c0.68,7.58,15,8.41,16.14,16.76,0.69,5-3.9,9.35-9.77,14.92-4.08,3.87-19.87,18.84-26.78,14.85-2.68-1.55-5.06-6.56,4.74-49.35C240.5,312.37,247.86,310.18,250.49,310Z"/><rect class="cls-10" x="315.03" y="489.5" width="14.49" height="5.88"/><path class="cls-10" d="M315,472.25v6.21h14.49v-6.14l-0.17-.08H315Z"/><rect class="cls-10" x="315.03" y="522.83" width="14.49" height="5.38"/><rect class="cls-10" x="315.03" y="506.42" width="14.49" height="5.38"/><rect class="cls-10" x="285.68" y="489.5" width="15.93" height="5.88"/><rect class="cls-10" x="285.68" y="506.42" width="15.93" height="5.38"/><rect class="cls-10" x="285.68" y="522.83" width="15.93" height="5.38"/><rect class="cls-10" x="257.42" y="522.83" width="14.84" height="5.38"/><rect class="cls-10" x="257.42" y="506.42" width="14.84" height="5.38"/><rect class="cls-10" x="257.42" y="489.5" width="14.84" height="5.88"/><polygon class="cls-10" points="272.26 472.25 263.52 472.25 257.42 472.25 257.42 478.46 272.26 478.46 272.26 472.25"/><path class="cls-10" d="M358.33,522.83H342.94v5.38h15.37C358.37,526.64,358.39,524.83,358.33,522.83Z"/><path class="cls-10" d="M342.94,511.8H357.1c-0.39-2.06-.82-3.87-1.22-5.38H342.94v5.38Z"/><path class="cls-10" d="M342.94,495.38h8.76a60.14,60.14,0,0,0-3.32-5.88h-5.44v5.88Z"/><path class="cls-10" d="M244,522.83H227.3c-0.08,1.95-.07,3.74,0,5.38H244v-5.38Z"/><path class="cls-10" d="M244,489.5h-6.9a58.54,58.54,0,0,0-3.16,5.88H244V489.5Z"/><path class="cls-10" d="M244,506.42H229.92c-0.59,2.17-1,4-1.26,5.38H244v-5.38Z"/><rect class="cls-11" x="244" y="489.5" width="13.42" height="5.88"/><rect class="cls-11" x="244" y="506.42" width="13.42" height="5.38"/><path class="cls-11" d="M257.42,472.25h-1.93a41.75,41.75,0,0,0-8.72,5.78l-0.48.43h11.13v-6.21Z"/><rect class="cls-11" x="244" y="522.83" width="13.42" height="5.38"/><polygon class="cls-11" points="285.68 472.25 278.36 472.25 272.26 472.25 272.26 478.46 285.68 478.46 285.68 472.25"/><rect class="cls-11" x="272.26" y="506.42" width="13.42" height="5.38"/><rect class="cls-11" x="272.26" y="522.83" width="13.42" height="5.38"/><rect class="cls-11" x="272.26" y="489.5" width="13.42" height="5.88"/><rect class="cls-11" x="301.61" y="506.42" width="13.42" height="5.38"/><polygon class="cls-11" points="301.61 472.25 301.61 478.46 315.03 478.46 315.03 472.25 307.71 472.25 301.61 472.25"/><rect class="cls-11" x="301.61" y="522.83" width="13.42" height="5.38"/><rect class="cls-11" x="301.61" y="489.5" width="13.42" height="5.88"/><path class="cls-11" d="M338.92,478.46l-0.69-.59a41.65,41.65,0,0,0-8.71-5.54v6.14h9.4Z"/><rect class="cls-11" x="329.52" y="506.42" width="13.42" height="5.38"/><rect class="cls-11" x="329.52" y="489.5" width="13.42" height="5.88"/><rect class="cls-11" x="329.52" y="522.83" width="13.42" height="5.38"/><rect class="cls-12" x="315.03" y="478.46" width="14.49" height="11.04"/><rect class="cls-12" x="285.68" y="478.46" width="15.93" height="11.04"/><rect class="cls-12" x="257.42" y="478.46" width="14.84" height="11.04"/><path class="cls-12" d="M348.38,489.5a53.13,53.13,0,0,0-5.44-7.12v7.12h5.44Z"/><path class="cls-12" d="M244,480.63a49.92,49.92,0,0,0-6.9,8.87H244v-8.87Z"/><path class="cls-12" d="M257.42,489.5v-11H246.29c-0.8.71-1.56,1.43-2.29,2.17v8.87h13.42Z"/><rect class="cls-12" x="272.26" y="478.46" width="13.42" height="11.04"/><rect class="cls-12" x="301.61" y="478.46" width="13.42" height="11.04"/><path class="cls-12" d="M329.52,489.5h13.42v-7.12a47,47,0,0,0-4-3.92h-9.4v11Z"/><rect class="cls-12" x="315.03" y="495.38" width="14.49" height="11.04"/><rect class="cls-12" x="285.68" y="495.38" width="15.93" height="11.04"/><rect class="cls-12" x="257.42" y="495.38" width="14.84" height="11.04"/><path class="cls-12" d="M342.94,506.42h12.94c-0.67-2.49-1.28-4.17-1.51-4.81a63.65,63.65,0,0,0-2.67-6.23h-8.76v11Z"/><path class="cls-12" d="M244,495.38H233.93a68.68,68.68,0,0,0-4,11H244v-11Z"/><rect class="cls-12" x="244" y="495.38" width="13.42" height="11.04"/><rect class="cls-12" x="272.26" y="495.38" width="13.42" height="11.04"/><rect class="cls-12" x="301.61" y="495.38" width="13.42" height="11.04"/><rect class="cls-12" x="329.52" y="495.38" width="13.42" height="11.04"/><rect class="cls-12" x="315.03" y="511.8" width="14.49" height="11.04"/><rect class="cls-12" x="285.68" y="511.8" width="15.93" height="11.04"/><rect class="cls-12" x="257.42" y="511.8" width="14.84" height="11.04"/><path class="cls-12" d="M342.94,522.83h15.39c0-.06,0-0.12,0-0.18a73.24,73.24,0,0,0-1.22-10.85H342.94v11Z"/><path class="cls-12" d="M244,511.8H228.66c-0.09.47-.17,0.88-0.24,1.23a67.21,67.21,0,0,0-1.12,9.81H244v-11Z"/><rect class="cls-12" x="244" y="511.8" width="13.42" height="11.04"/><rect class="cls-12" x="272.26" y="511.8" width="13.42" height="11.04"/><rect class="cls-12" x="301.61" y="511.8" width="13.42" height="11.04"/><rect class="cls-12" x="329.52" y="511.8" width="13.42" height="11.04"/><rect class="cls-12" x="315.03" y="528.21" width="14.49" height="2.82"/><rect class="cls-12" x="285.68" y="528.21" width="15.93" height="2.82"/><rect class="cls-12" x="257.42" y="528.21" width="14.84" height="2.82"/><path class="cls-12" d="M342.94,531h15.19c0.07-.83.13-1.77,0.17-2.82H342.94V531Z"/><path class="cls-12" d="M227.29,528.21c0,1,.09,2,0.16,2.82H244v-2.82H227.29Z"/><rect class="cls-12" x="244" y="528.21" width="13.42" height="2.82"/><rect class="cls-12" x="272.26" y="528.21" width="13.42" height="2.82"/><rect class="cls-12" x="301.61" y="528.21" width="13.42" height="2.82"/><rect class="cls-12" x="329.52" y="528.21" width="13.42" height="2.82"/><path class="cls-12" d="M321.13,472.25h8.22a46,46,0,0,0-8.22-2.91v2.91Z"/><path class="cls-12" d="M307.71,472.25v-4.87c-2-.13-4-0.23-6.1-0.29v5.16h6.1Z"/><path class="cls-12" d="M272.26,472.25v-4.73a60,60,0,0,0-8.74,1.69v3h8.74Z"/><path class="cls-12" d="M278.36,472.25V467c-2.07.11-4.1,0.28-6.1,0.52v4.73h6.1Z"/><path class="cls-12" d="M263.52,469.21a45.94,45.94,0,0,0-6.1,2.14v0.9h6.1v-3Z"/><path class="cls-12" d="M257.42,471.35c-0.65.28-1.29,0.59-1.93,0.9h1.93v-0.9Z"/><path class="cls-12" d="M285.68,466.82h0Z"/><path class="cls-12" d="M321.13,472.25v-2.91a60.61,60.61,0,0,0-6.1-1.22v4.12h6.1Z"/><path class="cls-12" d="M315,472.25v-4.12c-2.4-.36-4.85-0.59-7.32-0.75v4.87H315Z"/><rect class="cls-10" x="312.94" y="486.8" width="18.67" height="10.05"/><polygon class="cls-10" points="331.61 496.85 322.28 504.6 312.94 496.85 331.61 496.85"/><circle class="cls-11" cx="322.27" cy="490.83" r="1.95"/><rect class="cls-10" x="270.07" y="459.5" width="17.79" height="28.26" transform="translate(-259.09 361.17) rotate(-47.7)"/><rect class="cls-10" x="296.53" y="459.5" width="17.79" height="28.26" transform="translate(474.7 -63.91) rotate(50.3)"/><circle class="cls-11" cx="282.76" cy="482.38" r="1.95"/><circle class="cls-11" cx="301.61" cy="482.38" r="1.95"/><ellipse class="cls-13" cx="291.43" cy="329.32" rx="99.47" ry="21.56"/><path class="cls-13" d="M343.41,300.57a83.21,83.21,0,0,0-.42-12.35,31.82,31.82,0,0,0-3-10.45c-1.56-3.17-3.27-5.18-6.13-8.55a92.31,92.31,0,0,0-8.66-8.74,83.89,83.89,0,0,0-9.51-7.79c-9.65-6.35-24.09-8.89-36.75-5.32a45.91,45.91,0,0,0-10.35,4.56,65.19,65.19,0,0,0-25.35,24.52c-3.48,5.74-4.32,9.2-4.65,11.4a75.3,75.3,0,0,0,0,9.31c0.1,3.78.18,5.56,0.29,8.3H343.48C343.4,304,343.35,303,343.41,300.57Z"/><path class="cls-13" d="M239.63,328.69a71.79,71.79,0,0,0,.48,7.41c2.76,6.67,25.64,3.28,51.49,2.9,31.79-.46,48.21,3.93,52.23-3.27,0.76-1.36.52-2.15,0.2-12.4H239.44C239.5,325.56,239.55,327,239.63,328.69Z"/><path class="cls-10" d="M343.48,305.45H238.94c0,1.12.09,2.4,0.14,4.05,0,1.47,0,.48.24,9.17,0.05,1.94.09,3.42,0.13,4.66H344c-0.07-2.23-.14-4.9-0.2-8.13C343.72,309.43,343.57,307.12,343.48,305.45Z"/><path class="cls-14" d="M271.16,270.57c3.6,7.15,11.53,11.75,20.22,11.73,8.85,0,16.87-4.85,20.32-12.22"/><rect class="cls-15" x="311.13" y="293.51" width="18.86" height="29.24" rx="9.33" ry="9.33"/><path class="cls-10" d="M226.6,373.94c0.63,0.95-.18,2.42.26,2.58S228,375,230.05,374a2.81,2.81,0,0,1,2.12-.49c1.56,0.62.48,4.21,2,4.87a2.4,2.4,0,0,0,2.76-1.27c0.58-1.66-2.74-3.37-2.18-4.66s4.72-.47,5.25-1.85c0.25-.66-0.63-1-0.84-2.11-0.48-2.7,3.69-5.12,3-6.46-0.29-.53-1-0.19-1.64-0.88-1.21-1.25-.13-3.57-0.77-3.83s-2.19,2.43-3.44,2.12c-0.68-.17-0.78-1.1-1.18-1.06-0.78.09-.93,3.66-1.36,3.68s-0.52-5.32-2.08-5.6c-0.72-.13-1,1-2.21,1.18-2,.34-3.48-2.3-4.36-1.84s0.32,2.77-1,4.06c-0.89.88-2,.39-2.43,1.08-0.76,1.36,3.15,4.52,2.7,5.06s-3.05-1.29-3.51-.75c-0.29.35,0.72,1.19,0.4,1.91-0.48,1.09-3.48.64-3.65,1.33s1.84,1,2.06,2.29c0.16,1-.84,1.51-0.61,2.07C219.62,374.1,225.34,372.05,226.6,373.94Z"/></svg>