<svg id="Layer_1" data-name="Layer 1" xmlns="http://www.w3.org/2000/svg" viewBox="0 0 595.28 841.89"><defs><style>.cls-1,.cls-9{fill:#ed1c24;}.cls-1,.cls-10,.cls-14,.cls-15,.cls-2,.cls-4{stroke:#231f20;}.cls-1,.cls-10,.cls-15,.cls-2,.cls-4{stroke-linecap:round;stroke-linejoin:round;}.cls-1,.cls-2,.cls-4{stroke-width:2.99px;}.cls-3{fill:#fff;}.cls-10,.cls-14,.cls-15,.cls-4{fill:none;}.cls-5{fill:#231f20;}.cls-6{fill:#fccb7f;}.cls-7{fill:#ffb5a3;}.cls-8{fill:#ea8048;}.cls-10{stroke-width:2px;}.cls-11{fill:#e8d631;}.cls-12{fill:#ef4136;}.cls-13{fill:#2b3990;}.cls-14{stroke-miterlimit:10;}</style></defs><title>icons</title><path class="cls-1" d="M303,185.33c-81.3,0-151.39,49.44-183.55,120.74H486.53C454.37,234.77,384.28,185.33,303,185.33Z"/><path class="cls-2" d="M303,602.51c75.86,0,142-43.05,176.6-106.74H126.38C161,559.46,227.11,602.51,303,602.51Z"/><path class="cls-3" d="M486.53,306.07a214.64,214.64,0,0,1-6.95,189.7H126.37a214.64,214.64,0,0,1-7-189.7H486.53Z"/><path class="cls-4" d="M486.53,306.07H119.42a214.64,214.64,0,0,0,7,189.7H479.58A214.64,214.64,0,0,0,486.53,306.07Z"/><path class="cls-5" d="M271.75,277.9a75.39,75.39,0,0,1,27.51-4.28A73.19,73.19,0,0,1,354.44,300a72.31,72.31,0,0,1,9.73,13.75,60.48,60.48,0,0,1,4.32,10.17c4.78,14.8,5.37,34.73,5.53,39.94,0.07,2.51.07,4.71,0.34,8.5,0.71,9.92,2.48,18.1,3.92,25.94,1,5.37,2.39,11.64,4.69,20,4.3,15.59,9.5,24.16,11.09,41.74a112.66,112.66,0,0,1-1.71,32.11c-2.3,12.53-5.36,18.16-7.77,21.72-3.55,5.25-6.32,9.32-11.54,11.44-9.16,3.72-15.07-2.86-30.19-1.05-22,2.63-22,15.92-42.67,19.26-20.94,3.39-38.33-7.48-50.35-15-12.74-8-25-15.59-33.28-33.18-1.75-3.71-11.27-23.81-7.68-47.09,2.74-17.76,13.19-38.41,14.51-54.58,1.06-13-1-16.59-2-26h0a71.82,71.82,0,0,1-.56-10.43c1-38,23.86-61.31,23.86-61.31A71.33,71.33,0,0,1,271.75,277.9Z"/><rect class="cls-6" x="240.59" y="291.08" width="116.69" height="144.49" rx="53.35" ry="53.35"/><rect class="cls-6" x="283.2" y="417.3" width="35.91" height="46.1" rx="11.44" ry="11.44"/><rect class="cls-7" x="260.65" y="367.12" width="19.48" height="9.45" rx="4.33" ry="4.33"/><path class="cls-5" d="M258.77,291.21c4.08-.23,8.09,4.13,9.79,7.34,2.09,3.95,1.13,7.38-1.38,22-2.47,14.41-1.95,13.68-2.7,15.48-5.09,12.12-14.24,13.81-13.69,19.94,0.68,7.58,15,8.41,16.14,16.76,0.69,5-3.9,9.35-9.77,14.92-4.08,3.87-19.87,18.84-26.78,14.85-2.68-1.55-5.06-6.56,4.74-49.35C248.78,293.55,256.15,291.36,258.77,291.21Z"/><path class="cls-5" d="M274.08,280.44c-1.41,1.44-12.09,12.58-9.36,25,3.66,16.61,28.25,21,34.75,21,2,0,4.08-.2,4.08-0.2,6.68-1.67,11.66-3,13.1-3.65,7.4-3.21,23.51-3.73,29.63,3.25,6,6.81-3.54,13.93.82,33.44,0,0,2.66,12.18,1.35,18.74a31.32,31.32,0,0,1-3.74,9.8c1.11,0.54,24.87-26.19,20.34-55.46-3-19.44-17.64-32.41-22.78-36.7C314.9,272.76,279.73,279.29,274.08,280.44Z"/><circle class="cls-5" cx="273.22" cy="354.16" r="8.24"/><circle class="cls-5" cx="325.62" cy="354.16" r="8.24"/><path class="cls-8" d="M306.72,375.07c0,1.66-3.13,3-7,3s-7-1.35-7-3"/><path class="cls-9" d="M314.64,403.71c0,6.21-6.52,11.24-14.56,11.24s-14.56-5-14.56-11.24"/><path class="cls-9" d="M285.53,404.16c-1-4.27,0-8.33,2.63-10.14a7.44,7.44,0,0,1,4.61-1.06c3.86,0.26,4.27,3,7.39,3.16s4.11-2.77,8.13-2.54a7,7,0,0,1,3.53,1.07c2.53,1.72,3.57,5.47,2.82,9.5"/><path class="cls-3" d="M288.6,402.16c0.26-1.79,7-2.44,9.68-2.56,6.05-.28,13.46,1.19,13.69,3.29,0.17,1.55-3.58,3.15-6.1,3.78C297.85,408.68,288.28,404.37,288.6,402.16Z"/><rect class="cls-7" x="319.09" y="367.12" width="19.48" height="9.45" rx="4.33" ry="4.33"/><path class="cls-10" d="M260.72,346.72c0.25-.39,5.07-7.74,13.66-7.53a16.07,16.07,0,0,1,11.35,5.44"/><path class="cls-10" d="M338.16,346.07c-0.27-.38-5.45-7.47-14-6.84a16.07,16.07,0,0,0-11.06,6"/><rect class="cls-11" x="227.4" y="314.23" width="140.47" height="19.02" rx="9.51" ry="9.51"/><circle class="cls-12" cx="241.05" cy="323.41" r="3.86"/><path class="cls-11" d="M326.64,270.25c-7.53-4.57-14.59,6.2-30.93,5.73-15-.44-21.05-9.85-27.91-5.81-5.25,3.09-7.3,12.76-6,19.89a24.75,24.75,0,0,0,1,3.61c1.84,5.6,5.08,12.79,16.33,27.67,3.32,4.39,5,6.6,6,7.32,7.64,5.35,19.94,4.32,27.27-1.79,0.91-.75,2.53-3.11,5.79-7.84,8.33-12.08,11.47-19.57,12.94-23.48a30.22,30.22,0,0,0,1.57-4.81C334.11,283.61,332.2,273.63,326.64,270.25Zm-23.38,12.06a2,2,0,1,1-2,2A2,2,0,0,1,303.26,282.31Zm-11.25,0a2,2,0,1,1-2,2A2,2,0,0,1,292,282.31Zm22,32.62c-4.68,7.56-9.51,15.38-16.57,15.38h0c-6.29,0-10.6-6.32-16-14.28h0c-5.23-7.64-12.39-18.1-8.46-27.24,1.17-2.72,4.53-7.82,8.94-7.82H282c3.72,0.06,6,3.84,8.23,7.51,2.07,3.41,4,6.64,6.91,6.68h0.06c2.84,0,4.95-3.11,7.18-6.39,2.42-3.57,4.93-7.26,8.68-7.26h0.2c3.6,0.13,6.15,3.58,7.08,5.06C326,295.61,317.31,309.65,314,314.93Z"/><path class="cls-13" d="M313.21,281.51H313c-3.75,0-6.25,3.69-8.68,7.26-2.23,3.29-4.34,6.39-7.18,6.39h-0.06c-2.89,0-4.84-3.27-6.91-6.68C288,284.81,285.68,281,282,281h-0.09c-4.41,0-7.77,5.11-8.94,7.82-3.93,9.14,3.23,19.6,8.46,27.24h0c5.45,8,9.75,14.25,16,14.28h0c7.05,0,11.89-7.82,16.57-15.38,3.27-5.28,11.95-19.32,6.25-28.36C319.36,285.09,316.81,281.63,313.21,281.51Z"/><circle cx="292.01" cy="284.26" r="1.95"/><circle cx="303.26" cy="284.26" r="1.95"/><path class="cls-11" d="M293,292.23c-0.84.27,1.07,7.87,1.55,13.91a62.82,62.82,0,0,1,.14,6.54c0,0.58-.05,1.11-0.09,1.6-0.12,1.79-.34,3.35-0.59,5.06-1,6.83-2.49,9-.72,10.53,2,1.75,6.91,1.59,8.78-.3,1.67-1.67,0-3.73-1.43-10.36a55,55,0,0,1-1.22-8,45.4,45.4,0,0,1,0-4.87c0.35-7.7,2.51-13.63,1.94-13.83a3.39,3.39,0,0,0-.8.75,5.87,5.87,0,0,1-2.27,1.39,4.36,4.36,0,0,1-2.43,0C293.94,293.95,293.44,292.1,293,292.23Z"/><circle class="cls-12" cx="256.33" cy="323.41" r="3.86"/><circle class="cls-12" cx="271.8" cy="323.41" r="3.86"/><circle class="cls-12" cx="319.1" cy="323.41" r="3.86"/><circle class="cls-12" cx="336.39" cy="323.74" r="3.86" transform="translate(-59.14 75.7) rotate(-11.81)"/><circle class="cls-12" cx="353.53" cy="323.41" r="3.86"/><path class="cls-3" d="M327,477.06c5.52-.71,10.72-1.65,15.56-2.71,5.15-1.12,9.89-2.4,14.21-3.71,10.64,16.6,10,36.73,9.8,41H236c-0.11-4.13-.37-25.5,11.24-42.41l0.53,0.17c-0.08.11-.16,0.21-0.23,0.32a182.06,182.06,0,0,0,58.82,8.86A178.83,178.83,0,0,0,327,477.06Z"/><path class="cls-6" d="M356.46,470.16c0.1,0.16.21,0.32,0.3,0.48-0.1-.16-0.21-0.32-0.32-0.47h0Z"/><path class="cls-6" d="M356.44,470.17c0.11,0.15.22,0.31,0.32,0.47-4.32,1.31-9.06,2.59-14.21,3.71-0.06-.17-0.13-0.33-0.19-0.5C347.45,472.73,352.16,471.47,356.44,470.17Z"/><path class="cls-11" d="M349.48,462a47.16,47.16,0,0,1,7,8.21c-4.28,1.3-9,2.56-14.08,3.68q-3.63-9.57-7.28-19.15l-0.06-.61,2.15-.2A41.83,41.83,0,0,1,349.48,462Z"/><path class="cls-6" d="M342.36,473.85c0.06,0.17.13,0.33,0.19,0.5-4.84,1.06-10,2-15.56,2.71,0-.17,0-0.34-0.08-0.51C332.39,475.83,337.55,474.9,342.36,473.85Z"/><path class="cls-13" d="M335.08,454.7q3.63,9.57,7.28,19.15c-4.81,1-10,2-15.45,2.7q-1.67-10.82-3.34-21.62,5.86-.33,11.45-0.84Z"/><path class="cls-6" d="M310,478c5.91-.22,11.54-0.71,16.87-1.41,0,0.17.06,0.34,0.08,0.51a178.83,178.83,0,0,1-20.64,1.48,181.65,181.65,0,0,1-30.29-2.09h0c0-.14,0-0.28.07-0.42,5.4,0.82,11.14,1.44,17.2,1.77q6.15,0.36,12.71.27C307.39,478,308.72,478,310,478Z"/><path class="cls-11" d="M323.57,454.93q1.68,10.81,3.34,21.62c-5.33.7-11,1.19-16.87,1.41q-0.44-11.2-.84-22.42v-0.08Q316.58,455.34,323.57,454.93Z"/><path class="cls-6" d="M301.28,448.77c13.05,0.06,25,.11,35.58,4.64-9.87.95-20.45,1.55-31.67,1.6a346,346,0,0,1-38.64-1.95C277,448.68,288.47,448.72,301.28,448.77Z"/><path class="cls-13" d="M309.2,455.54q0.42,11.2.84,22.42c-1.32.05-2.65,0.08-4,.1q-6.56.09-12.71-.27v-0.21q0.5-11,1-22v-0.22q5.47,0.15,11.16.12l3.7,0v0.08Z"/><path class="cls-11" d="M294.34,455.38v0.22q-0.51,11-1,22v0.21c-6.06-.33-11.8-1-17.2-1.77l3.36-21.32v0Q286.69,455.17,294.34,455.38Z"/><path class="cls-13" d="M279.49,454.66v0L276.13,476c-5.68-.86-11-1.94-15.86-3.13q4-9.54,8-19.06V453.7C271.93,454.07,275.66,454.4,279.49,454.66Z"/><path class="cls-6" d="M260.27,472.89c4.88,1.19,10.18,2.27,15.86,3.13,0,0.14-.05.28-0.07,0.42h0a182.28,182.28,0,0,1-28.53-6.77c0.07-.11.15-0.21,0.23-0.32C251.55,470.58,255.73,471.78,260.27,472.89Z"/><path class="cls-11" d="M268.3,453.7v0.13q-4,9.54-8,19.06c-4.54-1.11-8.72-2.31-12.51-3.53a47.31,47.31,0,0,1,8.06-9,41.61,41.61,0,0,1,11-6.85Z"/><path class="cls-14" d="M310,478c-1.32.05-2.65,0.08-4,.1q-6.56.09-12.71-.27"/><path class="cls-14" d="M356.44,470.17c-4.28,1.3-9,2.56-14.08,3.68"/><path class="cls-14" d="M356.44,470.17a47.16,47.16,0,0,0-7-8.21,41.83,41.83,0,0,0-12.31-8.07l-2.15.2q-5.58.51-11.45,0.84-7,.4-14.37.53l-3.7,0q-5.68,0-11.16-.12-7.65-.21-14.85-0.72c-3.83-.26-7.56-0.59-11.19-1l-1.44-.15a41.61,41.61,0,0,0-11,6.85,47.31,47.31,0,0,0-8.06,9c-0.08.11-.16,0.21-0.23,0.32a182.06,182.06,0,0,0,58.82,8.86A178.83,178.83,0,0,0,327,477.06c5.52-.71,10.72-1.65,15.56-2.71,5.15-1.12,9.89-2.4,14.21-3.71C356.66,470.48,356.55,470.32,356.44,470.17Z"/><path class="cls-15" d="M268.29,453.83q-4,9.54-8,19.06a0.69,0.69,0,0,1-.05.13"/><path class="cls-15" d="M279.49,454.7L276.13,476c0,0.14-.05.28-0.07,0.42"/><path class="cls-15" d="M294.34,455.6q-0.51,11-1,22"/><path class="cls-14" d="M323.56,454.87s0,0,0,.06q1.68,10.81,3.34,21.62c0,0.17.06,0.34,0.08,0.51a2,2,0,0,1,0,.24"/><path class="cls-15" d="M335.08,454.7q3.63,9.57,7.28,19.15c0.06,0.17.13,0.33,0.19,0.5v0"/><path class="cls-15" d="M309.2,455.54q0.42,11.2.84,22.42c0,0.08,0,.16,0,0.24"/></svg>