<svg id="Layer_1" data-name="Layer 1" xmlns="http://www.w3.org/2000/svg" viewBox="0 0 595.28 841.89"><defs><style>.cls-1{fill:#ed1c24;}.cls-14,.cls-15,.cls-2{fill:#fff;}.cls-3{fill:#065a93;}.cls-10,.cls-12,.cls-13,.cls-4{fill:none;}.cls-12,.cls-4{stroke:#231f20;}.cls-4{stroke-miterlimit:10;stroke-width:3px;}.cls-5{fill:#231f20;}.cls-6{fill:#fccb7f;}.cls-7{fill:#f7f6f5;}.cls-8{fill:#ffb5a3;}.cls-9{fill:#1c75bc;}.cls-10{stroke:#1c75bc;stroke-width:7px;}.cls-10,.cls-12,.cls-14,.cls-15{stroke-linecap:round;stroke-linejoin:round;}.cls-11{fill:#ea8048;}.cls-12{stroke-width:2px;}.cls-14,.cls-15{stroke:#fff;}.cls-14{stroke-width:0.71px;}.cls-15{stroke-width:0.68px;}</style></defs><title>icons</title><path class="cls-1" d="M392.85,198.14C463,230.19,511.94,302.2,511.94,385.9S463,541.62,392.85,573.66V198.14Z"/><path class="cls-2" d="M392.85,198.14V573.66a197.15,197.15,0,0,1-163.51,0V198.14A197.15,197.15,0,0,1,392.85,198.14Z"/><path class="cls-3" d="M229.34,198.14V573.66c-70.17-32-119.09-104-119.09-187.76S159.17,230.19,229.34,198.14Z"/><path class="cls-4" d="M229.34,198.14C159.17,230.19,110.25,302.2,110.25,385.9s48.92,155.72,119.09,187.76"/><path class="cls-4" d="M392.85,573.66c70.17-32,119.09-104,119.09-187.76S463,230.19,392.85,198.14"/><path class="cls-4" d="M392.85,198.14a197.15,197.15,0,0,0-163.51,0V573.66a197.15,197.15,0,0,0,163.51,0V198.14Z"/><path class="cls-5" d="M282.54,279.32A75.39,75.39,0,0,1,310.05,275a73.19,73.19,0,0,1,55.18,26.36A72.31,72.31,0,0,1,375,315.15a60.47,60.47,0,0,1,4.32,10.17c4.78,14.8,5.37,34.73,5.53,39.94,0.07,2.51.07,4.71,0.34,8.5,0.71,9.92,2.48,18.1,3.92,25.94,1,5.37,2.39,11.64,4.69,20,4.3,15.59,9.5,24.16,11.09,41.74a112.67,112.67,0,0,1-1.71,32.11c-2.3,12.53-5.36,18.16-7.77,21.72-3.55,5.25-6.32,9.32-11.54,11.44-9.16,3.72-15.07-2.86-30.19-1.05-22,2.63-22,15.92-42.67,19.26-20.94,3.39-38.33-7.48-50.35-15-12.74-8-25-15.59-33.28-33.18-1.76-3.71-11.27-23.81-7.68-47.09,2.74-17.76,13.19-38.41,14.51-54.58,1.06-13-1-16.59-2-26h0a71.83,71.83,0,0,1-.56-10.43c1-38,23.86-61.31,23.86-61.31A71.33,71.33,0,0,1,282.54,279.32Z"/><rect class="cls-6" x="251.38" y="292.5" width="116.69" height="144.49" rx="53.35" ry="53.35"/><rect class="cls-6" x="293.99" y="418.72" width="35.91" height="46.1" rx="11.44" ry="11.44"/><path class="cls-6" d="M246.65,513c-0.13-4.94-.48-34.57,19.52-51.69,13.17-11.27,28.25-11.21,45.76-11.14,18.38,0.08,34.5.14,47.9,12.7C378.33,480.21,377.47,508,377.23,513"/><rect class="cls-7" x="262.84" y="316.66" width="98.19" height="115.64" rx="43.78" ry="43.78"/><rect class="cls-8" x="271.44" y="368.54" width="19.48" height="9.45" rx="4.33" ry="4.33"/><path class="cls-5" d="M269.56,292.64c4.08-.23,8.09,4.13,9.79,7.34,2.09,3.95,1.13,7.38-1.38,22-2.47,14.41-1.95,13.68-2.7,15.48-5.09,12.12-14.24,13.81-13.69,19.94,0.68,7.58,15,8.41,16.14,16.76,0.69,5-3.9,9.35-9.77,14.92C263.87,393,248.08,408,241.17,404c-2.68-1.55-5.06-6.56,4.74-49.35C259.57,295,266.94,292.79,269.56,292.64Z"/><path class="cls-5" d="M283.82,281.54c-1.41,1.44-12.09,12.58-9.36,25,3.66,16.61,28.25,21,34.75,21,2,0,4.08-.2,4.08-0.2,6.68-1.67,11.66-3,13.1-3.65,7.4-3.21,23.51-3.73,29.63,3.25,6,6.81-3.54,13.93.82,33.44,0,0,2.66,12.18,1.35,18.74a31.32,31.32,0,0,1-3.74,9.8c1.11,0.54,24.87-26.19,20.34-55.46-3-19.44-17.64-32.41-22.78-36.7C324.64,273.86,289.47,280.39,283.82,281.54Z"/><path class="cls-9" d="M356,266.33c4.75,9.35-1.85,24.51-11.43,33.46-19.38,18.11-40.38.35-70.19,17.14-19.4,10.93-22.24,25.06-38.36,25.3-9.57.14-21.18-4.62-24.48-13.06-6.15-15.67,19-37.26,26.93-44.07,4.57-3.92,28.05-23.46,66.11-27.75C318.78,255.75,348.95,252.35,356,266.33Z"/><path class="cls-10" d="M239.8,260.79c0,10.62,16.51,19.22,36.92,19.22"/><circle class="cls-5" cx="284.01" cy="355.58" r="8.24"/><circle class="cls-5" cx="336.41" cy="355.58" r="8.24"/><path class="cls-11" d="M317.51,376.49c0,1.66-3.13,3-7,3s-7-1.35-7-3"/><path class="cls-1" d="M325.43,405.13c0,6.21-6.52,11.24-14.56,11.24s-14.56-5-14.56-11.24"/><path class="cls-1" d="M296.32,405.58c-1-4.27,0-8.33,2.63-10.14a7.44,7.44,0,0,1,4.61-1.06c3.86,0.26,4.27,3,7.39,3.16s4.11-2.77,8.13-2.54a7,7,0,0,1,3.53,1.07c2.53,1.72,3.57,5.47,2.82,9.5"/><path class="cls-2" d="M299.39,403.59c0.26-1.79,7-2.44,9.68-2.56,6.05-.28,13.46,1.19,13.69,3.29,0.17,1.55-3.58,3.15-6.1,3.78C308.64,410.11,299.07,405.79,299.39,403.59Z"/><rect class="cls-8" x="329.88" y="368.54" width="19.48" height="9.45" rx="4.33" ry="4.33"/><path class="cls-12" d="M271.51,348.15c0.25-.39,5.07-7.74,13.66-7.53a16.07,16.07,0,0,1,11.35,5.44"/><path class="cls-12" d="M348.95,347.49c-0.27-.38-5.45-7.47-14-6.84a16.07,16.07,0,0,0-11.06,6"/><path class="cls-1" d="M291.68,449.06c0.28,5,11.26,10,20.85,8.4,7.47-1.22,15.84-6.73,15.2-11-0.9-5.92-19.68-11.07-30.87-3.91C295.41,443.52,291.51,446,291.68,449.06Z"/><path class="cls-1" d="M333.4,441.45c4.21-1.38,9.11-.45,9.22.83,0.19,2.34-15.59,7.58-16.59,5.51C325.48,446.66,329.14,442.85,333.4,441.45Z"/><path class="cls-1" d="M332.19,453.81c-3.74-2.37-6.14-6.74-5.22-7.64,1.68-1.64,15.77,7.19,14.81,9.29C341.25,456.6,336,456.21,332.19,453.81Z"/><path class="cls-13" d="M376.6,497.08a0.41,0.41,0,0,0,0,.09A0.47,0.47,0,0,0,376.6,497.08Z"/><path class="cls-9" d="M246,513H377.31c0.06-.79.12-1.84,0.15-3.07,0-.74,0-1.47,0-2.2H246C245.93,509.71,245.92,511.49,246,513Z"/><path class="cls-9" d="M376.6,497.08c0-.31-0.17-1.47-0.47-3.23h-0.35C376.22,495.54,376.53,496.77,376.6,497.08Z"/><path class="cls-9" d="M374.56,486.82h0.06a58.68,58.68,0,0,0-2.29-6.86h-0.07A64.77,64.77,0,0,1,374.56,486.82Z"/><path class="cls-9" d="M376.22,493.86h-0.09c0.3,1.75.43,2.92,0.47,3.23a0.47,0.47,0,0,1,0,.09,0.41,0.41,0,0,1,0-.09c-0.07-.32-0.38-1.54-0.82-3.23H247.86l-0.13.58c-0.48,2.19-.83,4.29-1.1,6.28H377.16C376.93,498.28,376.61,496,376.22,493.86Z"/><path class="cls-9" d="M372.18,480H251.84c-0.9,2.36-1.64,4.69-2.25,6.86H373.94C373.17,483.87,372.47,481.14,372.18,480Z"/><path class="cls-9" d="M357.79,461.07c-11.23-7.15-18.48,4.23-45.29,4.37-27,.15-34.72-11.34-46.91-4.11-4.53,2.69-7.94,6.93-10.52,11.59H368.83A34.64,34.64,0,0,0,357.79,461.07Z"/><path class="cls-9" d="M372.26,480h-0.08c0.29,1.18,1,3.91,1.76,6.86h0.62A64.77,64.77,0,0,0,372.26,480Z"/><path class="cls-14" d="M373.94,486.82l1.84,7h0.35a72.08,72.08,0,0,0-1.57-7h-0.62Z"/><path class="cls-14" d="M376.13,493.86h0.09c-0.48-2.65-1-5-1.6-7h-0.06A72.08,72.08,0,0,1,376.13,493.86Z"/><path class="cls-2" d="M373.94,486.82H249.6c-0.75,2.68-1.31,5.11-1.74,7H375.78Z"/><path class="cls-2" d="M246.63,500.72c-0.34,2.54-.53,4.9-0.62,7H377.49c0-2.45-.12-4.81-0.33-7H246.63Z"/><path class="cls-15" d="M372.07,479.49a51.46,51.46,0,0,0-3.24-6.57H255.08a55.53,55.53,0,0,0-3.23,7H372.18Z"/><path class="cls-15" d="M372.07,479.49l0.19,0.47h0.07a4.45,4.45,0,0,0-.29-0.63A0.72,0.72,0,0,0,372.07,479.49Z"/><path class="cls-15" d="M372.07,479.49l0.11,0.47h0.08Z"/><path class="cls-5" d="M344,391.68a6.3,6.3,0,0,1,.53,1.22,3.91,3.91,0,0,1,0,3.15,3.2,3.2,0,0,1-2.3,1.68,3.43,3.43,0,0,1-3.25-1.93,3.53,3.53,0,0,1,.3-3,4.93,4.93,0,0,1,.59-0.93,20.44,20.44,0,0,0,.95-1.88c1.06-2.43,1-4.3,1.22-4.3C342.48,385.64,342.48,388.88,344,391.68Z"/></svg>