<svg id="Layer_1" data-name="Layer 1" xmlns="http://www.w3.org/2000/svg" viewBox="0 0 595.28 841.89"><defs><style>.cls-1{fill:#383334;}.cls-1,.cls-11,.cls-2,.cls-3{stroke:#231f20;}.cls-1,.cls-11,.cls-13,.cls-2,.cls-3{stroke-linecap:round;stroke-linejoin:round;}.cls-1,.cls-2,.cls-3{stroke-width:2.99px;}.cls-2{fill:#e8d700;}.cls-3,.cls-8{fill:#ed1c24;}.cls-4{fill:#f2f270;}.cls-5{fill:#fccb7f;}.cls-6{fill:#231f20;}.cls-7{fill:#ea8048;}.cls-9{fill:#fff;}.cls-10{fill:#ffb5a3;}.cls-11,.cls-13{fill:none;}.cls-11{stroke-width:2px;}.cls-12{fill:#08513e;}.cls-13{stroke:#3c2415;}.cls-14{fill:#bc2820;}</style></defs><title>icons</title><path class="cls-1" d="M298.17,194.79c-81.3,0-151.39,49.44-183.55,120.74H481.72C449.55,244.23,379.47,194.79,298.17,194.79Z"/><path class="cls-2" d="M298.17,612c75.86,0,142-43.05,176.6-106.74H121.56C156.2,568.92,222.3,612,298.17,612Z"/><path class="cls-3" d="M481.72,315.53H114.61a214.61,214.61,0,0,0,7,189.7h353.2A214.61,214.61,0,0,0,481.72,315.53Z"/><path class="cls-4" d="M270.48,286.06A75.39,75.39,0,0,1,298,281.78a73.19,73.19,0,0,1,55.18,26.36,72.29,72.29,0,0,1,9.73,13.75,60.46,60.46,0,0,1,4.32,10.17c4.78,14.8,5.37,34.73,5.53,39.94,0.07,2.51.07,4.71,0.34,8.5,0.71,9.92,2.48,18.1,3.92,25.94,1,5.37,2.39,11.64,4.69,20,4.3,15.59,9.5,24.16,11.09,41.74a112.66,112.66,0,0,1-1.71,32.11c-2.3,12.53-5.36,18.16-7.77,21.72-3.55,5.25-6.32,9.32-11.54,11.44-9.16,3.72-15.07-2.86-30.19-1.05-22,2.63-22,15.92-42.67,19.26-20.94,3.39-38.33-7.48-50.35-15-12.74-8-25-15.59-33.28-33.18-1.75-3.71-11.27-23.81-7.68-47.09,2.74-17.76,13.19-38.41,14.51-54.58,1.06-13-1-16.59-2-26h0a71.9,71.9,0,0,1-.56-10.43c1-38,23.86-61.31,23.86-61.31A71.33,71.33,0,0,1,270.48,286.06Z"/><rect class="cls-5" x="237.31" y="299.24" width="116.69" height="144.49" rx="53.35" ry="53.35"/><path class="cls-4" d="M269.75,288.28c-1.41,1.44-12.09,12.58-9.36,25,3.66,16.61,28.25,21,34.75,21,2,0,4.08-.2,4.08-0.2,6.68-1.67,11.66-3,13.1-3.65,7.4-3.21,23.51-3.73,29.63,3.25,6,6.81-3.54,13.93.82,33.44,0,0,2.66,12.18,1.35,18.74a31.32,31.32,0,0,1-3.74,9.8c1.11,0.54,24.87-26.19,20.34-55.46-3-19.44-17.64-32.41-22.78-36.7C310.58,280.6,275.41,287.13,269.75,288.28Z"/><circle class="cls-6" cx="271.68" cy="363.86" r="8.24"/><circle class="cls-6" cx="324.07" cy="363.86" r="8.24"/><path class="cls-7" d="M305.17,384.77c0,1.66-3.13,3-7,3s-7-1.35-7-3"/><path class="cls-8" d="M313.09,413.41c0,6.21-6.52,11.24-14.56,11.24s-14.56-5-14.56-11.24"/><path class="cls-8" d="M284,413.86c-1-4.27,0-8.33,2.63-10.14a7.44,7.44,0,0,1,4.61-1.06c3.86,0.26,4.27,3,7.39,3.16s4.11-2.77,8.13-2.54a7,7,0,0,1,3.53,1.07c2.53,1.72,3.57,5.47,2.82,9.5"/><path class="cls-9" d="M287.06,411.86c0.26-1.79,7-2.44,9.68-2.56,6.05-.28,13.46,1.19,13.69,3.29,0.17,1.55-3.58,3.15-6.1,3.78C296.31,418.38,286.74,414.07,287.06,411.86Z"/><rect class="cls-10" x="317.55" y="376.82" width="19.48" height="9.45" rx="4.33" ry="4.33"/><rect class="cls-10" x="259.11" y="376.82" width="19.48" height="9.45" rx="4.33" ry="4.33"/><rect class="cls-5" x="279.92" y="425.46" width="35.91" height="46.1" rx="11.44" ry="11.44"/><path class="cls-11" d="M259.17,356.42c0.25-.39,5.07-7.74,13.66-7.53a16.07,16.07,0,0,1,11.35,5.44"/><path class="cls-11" d="M336.62,355.77c-0.27-.38-5.45-7.47-14-6.84a16.07,16.07,0,0,0-11.06,6"/><path class="cls-4" d="M255.5,299.38c4.08-.23,8.09,4.13,9.79,7.34,2.09,3.95,1.13,7.38-1.38,22-2.47,14.41-1.95,13.68-2.7,15.48-5.09,12.12-14.24,13.81-13.69,19.94,0.68,7.58,15,8.41,16.14,16.76,0.69,5-3.9,9.35-9.77,14.92-4.08,3.87-19.87,18.84-26.78,14.85-2.68-1.55-5.06-6.56,4.74-49.35C245.51,301.72,252.88,299.53,255.5,299.38Z"/><path class="cls-5" d="M352.34,477.28a47.63,47.63,0,0,0-5.82-6.91v3.55A15.28,15.28,0,0,1,352.34,477.28Z"/><path class="cls-5" d="M297.31,469.39a316.28,316.28,0,0,1,32.8,1.31V460.3c-9.75-3.27-20.54-3.32-32.24-3.36-12.19-.05-23.19-0.09-33.2,3.68V470.9A289.09,289.09,0,0,1,297.31,469.39Z"/><path class="cls-5" d="M248.27,471.79a49,49,0,0,0-4.73,6,16.28,16.28,0,0,1,4.73-3.06v-2.94Z"/><path class="cls-5" d="M362.79,507.57l0.42,11.14A82.34,82.34,0,0,0,362.79,507.57Z"/><path class="cls-9" d="M362.87,504.79c0-.21-0.08-0.51-0.13-0.88a69.49,69.49,0,0,0-9-24.94,9.62,9.62,0,0,0-1.35-1.68c7,10,9.65,21.63,10.56,30.29Z"/><path class="cls-9" d="M363.25,519.77l0-1.06c0,0.42,0,.78,0,1.06h0.08Z"/><path class="cls-9" d="M243.54,477.78a11.41,11.41,0,0,0-1.41,1.64c-6.5,9.26-8.85,20.55-8.85,20.55-0.08.38-.14,0.68-0.18,0.89a58.75,58.75,0,0,0-.54,18.89h0C232.48,515.67,232.23,494.62,243.54,477.78Z"/><path class="cls-9" d="M297.31,469.39a289.09,289.09,0,0,0-32.63,1.51v19.45a93.53,93.53,0,0,0,65.43,0V470.7A316.28,316.28,0,0,0,297.31,469.39Z"/><path class="cls-9" d="M363.36,507.43a67.22,67.22,0,0,0-4.48-19.17c-3.59-9-6.9-11.56-8.7-12.67a16.53,16.53,0,0,0-3.66-1.67v45.85h16.83A72.22,72.22,0,0,0,363.36,507.43Z"/><path class="cls-9" d="M248.27,482.72v-8a16.28,16.28,0,0,0-4.73,3.06c-11.3,16.84-11.06,37.89-10.95,42h15.68v-37Z"/><path class="cls-12" d="M264.68,470.9V460.62a41.7,41.7,0,0,0-12.57,7.46,46.18,46.18,0,0,0-3.84,3.71v2.94C251.82,473.12,257,471.82,264.68,470.9Z"/><path class="cls-12" d="M248.27,474.72v8a108.57,108.57,0,0,0,16.41,7.63V470.9C257,471.82,251.82,473.12,248.27,474.72Z"/><path class="cls-12" d="M346.52,473.92v-3.55c-0.25-.24-0.49-0.49-0.75-0.73a41.93,41.93,0,0,0-15.67-9.33v10.4C337.94,471.53,343.08,472.67,346.52,473.92Z"/><path class="cls-12" d="M330.11,490.34a108.65,108.65,0,0,0,16.41-7.62v-8.8c-3.45-1.25-8.58-2.39-16.41-3.21v19.64Z"/><path class="cls-12" d="M248.27,502h16.41V490.35a108.57,108.57,0,0,1-16.41-7.63V502Z"/><path class="cls-12" d="M330.11,502h16.41V482.72a108.65,108.65,0,0,1-16.41,7.62V502Z"/><path class="cls-12" d="M264.68,490.35V502H248.27v17.81h36.92V495.44A97.28,97.28,0,0,1,264.68,490.35Z"/><path class="cls-12" d="M346.52,502H330.11V490.34a97,97,0,0,1-22,5.28v24.14h38.41V502Z"/><path class="cls-9" d="M296.64,496.25a92.09,92.09,0,0,1-11.45-.81v24.33h22.93V495.63A91.93,91.93,0,0,1,296.64,496.25Z"/><path class="cls-13" d="M284.67,495.8c7.35,1.15,13.46,2.12,18.07,2.87,3.89,0.63,6,1,6,1.44,0,1.55-23.77,2-23.79,3.55s23.27,2.81,23.22,4.19c0,0.53-3.47.65-11,1.83-6.61,1-12.22,1.92-12.21,2.77,0,1.7,23.14,2,23.16,3.59,0,0.79-5.47,1.53-10,2.14-5.42.73-10,1-13.14,1.12"/><path class="cls-13" d="M308.64,496c-2.11.36-5.31,0.87-9.21,1.38-9.33,1.21-14.27,1.3-14.29,2,0,0.17.36,0.62,11.14,2.27,8.59,1.31,11.43,1.49,11.46,2,0.07,1.56-22.64,3.09-22.6,4.82s22.81,1.93,22.85,3.78c0,1-6,1.89-8.44,2.27-8.72,1.35-14.41.7-14.48,1.32s5.35,1.82,10.2,2.52a87.73,87.73,0,0,0,12.86.91"/><ellipse class="cls-12" cx="297.4" cy="315.53" rx="99.47" ry="21.56"/><path class="cls-12" d="M349.73,288.45c-0.11-6.87-.15-10.35-0.42-12.35a40.52,40.52,0,0,0-3-10.45c-0.79-1.94-10-23.68-24.29-25.09-10.72-1.05-12.83,10.44-25.28,10.67C284,251.46,281.14,239.56,270,241c-12.58,1.67-20.83,18.62-22.89,24.68a43,43,0,0,0-2.18,10c-0.17,2.66-.08,6.29,0,9.31,0.1,3.78.18,5.56,0.29,8.3H349.79C349.78,292.18,349.76,290.49,349.73,288.45Z"/><path class="cls-12" d="M245.95,316.56a71.79,71.79,0,0,0,.48,7.41c2.76,6.67,25.64,3.28,51.49,2.9,31.79-.46,48.21,3.93,52.23-3.27,0.76-1.36.52-2.15,0.2-12.4H245.75C245.81,313.43,245.86,314.85,245.95,316.56Z"/><path class="cls-14" d="M349.79,293.32H245.25c0,1.12.09,2.4,0.14,4.05,0,1.47,0,.48.24,9.17,0.05,1.94.09,3.42,0.13,4.66H350.35c-0.07-2.23-.14-4.9-0.2-8.13C350,297.31,349.89,295,349.79,293.32Z"/><path class="cls-14" d="M327.37,304.45c-2.1-1.69,5-18.37,18.3-30,17.66-15.32,39.78-16,40-15.19s-16,2.44-28.42,15.73c-4.74,5.07-4.6,7.2-11.17,14.47S329.24,306,327.37,304.45Z"/></svg>