<svg id="Layer_1" data-name="Layer 1" xmlns="http://www.w3.org/2000/svg" viewBox="0 0 595.28 841.89"><defs><style>.cls-1{fill:#065a93;}.cls-1,.cls-2,.cls-9{stroke:#231f20;stroke-linecap:round;stroke-linejoin:round;}.cls-1,.cls-2{stroke-width:3px;}.cls-2,.cls-7{fill:#fff;}.cls-3{fill:#231f20;}.cls-4{fill:#fccb7f;}.cls-5{fill:#ea8048;}.cls-6{fill:#ed1c24;}.cls-8{fill:#ffb5a3;}.cls-9{fill:none;stroke-width:2px;}.cls-10{fill:#ffd652;}</style></defs><title>icons</title><path class="cls-1" d="M301,194c-81.3,0-151.39,49.44-183.55,120.74H484.56C452.39,243.49,382.31,194,301,194Z"/><path class="cls-1" d="M301,611.23c75.86,0,142-43.05,176.6-106.74H124.4C159,568.18,225.14,611.23,301,611.23Z"/><path class="cls-2" d="M484.56,314.79H117.45a214.61,214.61,0,0,0,7,189.7h353.2A214.61,214.61,0,0,0,484.56,314.79Z"/><path class="cls-3" d="M273.32,285.32A75.39,75.39,0,0,1,300.83,281,73.19,73.19,0,0,1,356,307.39a72.31,72.31,0,0,1,9.73,13.75,60.47,60.47,0,0,1,4.32,10.17c4.78,14.8,5.37,34.73,5.53,39.94,0.07,2.51.07,4.71,0.34,8.5,0.71,9.92,2.48,18.1,3.92,25.94,1,5.37,2.39,11.64,4.69,20,4.3,15.59,9.5,24.16,11.09,41.74a112.67,112.67,0,0,1-1.71,32.11c-2.3,12.53-5.36,18.16-7.77,21.72-3.55,5.25-6.32,9.32-11.54,11.44-9.16,3.72-15.07-2.86-30.19-1.05-22,2.63-22,15.92-42.67,19.26-20.94,3.39-38.33-7.48-50.35-15-12.74-8-25-15.59-33.28-33.18-1.76-3.71-11.27-23.81-7.68-47.09,2.74-17.76,13.19-38.41,14.51-54.58,1.06-13-1-16.59-2-26h0a71.83,71.83,0,0,1-.56-10.43c1-38,23.86-61.31,23.86-61.31A71.33,71.33,0,0,1,273.32,285.32Z"/><rect class="cls-4" x="240.15" y="298.5" width="116.69" height="144.49" rx="53.35" ry="53.35"/><path class="cls-3" d="M272.59,287.53c-1.41,1.44-12.09,12.58-9.36,25,3.66,16.61,28.25,21,34.75,21,2,0,4.08-.2,4.08-0.2,6.68-1.67,11.66-3,13.1-3.65,7.4-3.21,23.51-3.73,29.63,3.25,6,6.81-3.54,13.93.82,33.44,0,0,2.66,12.18,1.35,18.74a31.32,31.32,0,0,1-3.74,9.8c1.11,0.54,24.87-26.19,20.34-55.46-3-19.44-17.64-32.41-22.78-36.7C313.42,279.86,278.24,286.39,272.59,287.53Z"/><circle class="cls-3" cx="274.52" cy="363.12" r="8.24"/><circle class="cls-3" cx="326.91" cy="363.12" r="8.24"/><path class="cls-5" d="M308,384c0,1.66-3.13,3-7,3s-7-1.35-7-3"/><path class="cls-6" d="M315.93,412.67c0,6.21-6.52,11.24-14.56,11.24s-14.56-5-14.56-11.24"/><path class="cls-6" d="M286.82,413.12c-1-4.27,0-8.33,2.63-10.14a7.44,7.44,0,0,1,4.61-1.06c3.86,0.26,4.27,3,7.39,3.16s4.11-2.77,8.13-2.54a7,7,0,0,1,3.53,1.07c2.53,1.72,3.57,5.47,2.82,9.5"/><path class="cls-7" d="M289.9,411.12c0.26-1.79,7-2.44,9.68-2.56,6.05-.28,13.46,1.19,13.69,3.29,0.17,1.55-3.58,3.15-6.1,3.78C299.15,417.64,289.58,413.33,289.9,411.12Z"/><rect class="cls-8" x="320.39" y="376.08" width="19.48" height="9.45" rx="4.33" ry="4.33"/><rect class="cls-8" x="261.95" y="376.08" width="19.48" height="9.45" rx="4.33" ry="4.33"/><rect class="cls-4" x="282.76" y="424.72" width="35.91" height="46.1" rx="11.44" ry="11.44"/><path class="cls-4" d="M235.43,519c-0.13-4.94-.48-34.57,19.52-51.69,13.17-11.27,28.25-11.21,45.76-11.14,18.38,0.08,34.5.14,47.9,12.7C367.11,486.2,366.24,514,366,519"/><path class="cls-9" d="M262,355.68c0.25-.39,5.07-7.74,13.66-7.53A16.07,16.07,0,0,1,287,353.6"/><path class="cls-9" d="M339.46,355c-0.27-.38-5.45-7.47-14-6.84a16.07,16.07,0,0,0-11.06,6"/><path class="cls-3" d="M258.34,298.64c4.08-.23,8.09,4.13,9.79,7.34,2.09,3.95,1.13,7.38-1.38,22-2.47,14.41-1.95,13.68-2.7,15.48-5.09,12.12-14.24,13.81-13.69,19.94,0.68,7.58,15,8.41,16.14,16.76,0.69,5-3.9,9.35-9.77,14.92C252.65,399,236.85,414,229.95,410c-2.68-1.55-5.06-6.56,4.74-49.35C248.35,301,255.72,298.79,258.34,298.64Z"/><path class="cls-10" d="M244.89,323.35c1,0.54,5-6.37,13.87-12.36,2.13-1.44,5.88-3.94,7.06-2.92,1.75,1.52-3.41,9.83-2.83,10.16,0.36,0.21,2.88-4.7,7.69-9.65,0.68-.7,6.48-6.61,8.07-5.52,0.71,0.48.3,2.32-.53,6-1.11,4.87-2.31,7.5-1.83,7.76,0.77,0.41,2.8-4.95,7.79-7a13.8,13.8,0,0,1,8.72-.37,20.83,20.83,0,0,1-5.19,10.94A21.58,21.58,0,0,1,272.59,327l0,0c3.26,3.45,8.5,1.61,9.16,3,0.8,1.63-5,7.82-13,10a25.37,25.37,0,0,1-11.94.25c9.56,2.64,11.5,4.58,11.45,5.87-0.11,2.8-9.73,6.45-18.73,5.75-3.79-.29-8.72-1.45-9-0.48-0.2.58,1.51,1.21,1.38,2-0.41,2.33-16.75,4.34-20-1.14-1.57-2.62,1.35-4.47,2.16-11.52,1-8.87-2.17-15-.27-16,1.75-.86,4.7,4.24,7.63,3.34,2-.61,2.24-3.44,3.47-6.48,3.38-8.37,12.25-13.69,13.87-12.52C250.63,310.46,243.62,322.64,244.89,323.35Z"/><path class="cls-10" d="M352.41,320.72c-1,.49-4.67-6.61-13.23-13-2.05-1.54-5.68-4.23-6.9-3.27-1.82,1.43,2.91,10,2.32,10.29-0.37.19-2.64-4.84-7.19-10-0.64-.73-6.14-6.93-7.78-5.92-0.73.45-.42,2.3,0.23,6,0.86,4.92,1.93,7.61,1.43,7.84-0.79.37-2.55-5.08-7.42-7.43a13.8,13.8,0,0,0-8.69-.81,20.83,20.83,0,0,0,4.64,11.19,21.58,21.58,0,0,0,14.76,7.4l0,0c-3.43,3.28-8.57,1.18-9.3,2.51-0.88,1.59,4.57,8.06,12.53,10.66a25.37,25.37,0,0,0,11.91.85C330,339.12,328,341,328,342.25c0,2.8,9.39,6.93,18.42,6.69,3.8-.1,8.78-1,9.06,0,0.17,0.59-1.57,1.14-1.48,1.88,0.29,2.35,16.51,5.18,20.06-.13,1.7-2.54-1.12-4.53-1.58-11.62-0.57-8.91,2.93-14.9,1.07-15.93-1.7-.94-4.9,4-7.79,3-2-.71-2.06-3.55-3.14-6.65-3-8.53-11.54-14.29-13.22-13.2C347.33,307.55,353.71,320.07,352.41,320.72Z"/><rect class="cls-10" x="282.76" y="444.35" width="35.91" height="10.47"/><path class="cls-7" d="M365.39,503.16c-1.1-7-4-25.2-18.71-36.42a38.6,38.6,0,0,0-6.52-4.24L234.35,508.61a34.53,34.53,0,0,0,1,10.41H366.09A71.41,71.41,0,0,0,365.39,503.16Z"/><path class="cls-10" d="M336.16,461c-15.9-4.73-26.59,8.38-48.91,17.93-26.16,11.2-43.15,6.76-50.4,20.83a23.81,23.81,0,0,0-2.5,8.9A478.5,478.5,0,0,0,340.16,462.5,26.92,26.92,0,0,0,336.16,461Z"/></svg>