<svg id="Layer_1" data-name="Layer 1" xmlns="http://www.w3.org/2000/svg" viewBox="0 0 595.28 841.89"><defs><style>.cls-1{fill:#f27d2f;}.cls-1,.cls-12,.cls-2,.cls-3{stroke:#231f20;}.cls-1,.cls-2,.cls-3{stroke-miterlimit:10;}.cls-1,.cls-2,.cls-3,.cls-6,.cls-7{stroke-width:3px;}.cls-2{fill:#2bb673;}.cls-10,.cls-3{fill:#fff;}.cls-4{fill:#231f20;}.cls-5{fill:#e29b54;}.cls-12,.cls-6{fill:none;}.cls-6,.cls-7{stroke:#f8d106;}.cls-12,.cls-6,.cls-7{stroke-linecap:round;stroke-linejoin:round;}.cls-7{fill:#f8d106;}.cls-8{fill:#ea8048;}.cls-9{fill:#ed1c24;}.cls-11{fill:#dd7f78;}.cls-12{stroke-width:2px;}.cls-13{fill:#c1081f;}.cls-14{fill:#cf3e89;}</style></defs><title>icons</title><path class="cls-1" d="M306.55,186.82c-81.3,0-151.39,49.44-183.55,120.74H490.1C457.94,236.27,387.85,186.82,306.55,186.82Z"/><path class="cls-2" d="M306.55,604c75.86,0,142-43.05,176.6-106.74H129.95C164.58,561,230.68,604,306.55,604Z"/><path class="cls-3" d="M490.1,307.57H123a214.61,214.61,0,0,0,7,189.7h353.2A214.61,214.61,0,0,0,490.1,307.57Z"/><path class="cls-4" d="M278.86,277.59a86.42,86.42,0,0,1,61.93,4.31,74.12,74.12,0,0,1,20.76,15.16,64.22,64.22,0,0,1,9.73,12.13,50.21,50.21,0,0,1,4.32,9c4.78,13.05,5.37,30.64,5.53,35.24,0.07,2.21.07,4.16,0.34,7.5,0.71,8.75,2.48,16,3.92,22.89,1,4.74,2.39,10.27,4.69,17.62,4.3,13.76,9.5,21.32,11.09,36.82a87.94,87.94,0,0,1-1.71,28.32c-2.3,11.05-5.36,16-7.77,19.16-3.55,4.63-6.32,8.23-11.54,10.09-9.16,3.28-15.07-2.52-30.19-.93-22,2.32-22,14-42.67,17-20.94,3-38.33-6.59-50.35-13.22-12.74-7-25-13.76-33.28-29.27-1.76-3.27-11.27-21-7.68-41.54,2.74-15.67,13.19-33.88,14.51-48.15,1.06-11.49-1-14.63-2-22.89h0a56,56,0,0,1-.56-9.21c1-33.57,23.86-54.08,23.86-54.08A72.25,72.25,0,0,1,278.86,277.59Z"/><rect class="cls-5" x="245.69" y="291.28" width="116.69" height="144.49" rx="53.35" ry="53.35"/><line class="cls-6" x1="360.53" y1="364.14" x2="360.23" y2="404.67"/><circle class="cls-7" cx="360.38" cy="409.35" r="5.16"/><path class="cls-4" d="M278.14,280.31c-1.41,1.44-12.09,12.58-9.36,25,3.66,16.61,28.25,21,34.75,21,2,0,4.08-.2,4.08-0.2,6.68-1.67,11.66-3,13.1-3.65,7.4-3.21,23.51-3.73,29.63,3.25,6,6.81-3.54,13.93.82,33.44,0,0,2.66,12.18,1.35,18.74a31.32,31.32,0,0,1-3.74,9.8c1.11,0.54,24.87-26.19,20.34-55.46-3-19.44-17.64-32.41-22.78-36.7C319,272.63,283.79,279.17,278.14,280.31Z"/><circle class="cls-4" cx="280.06" cy="355.89" r="8.24"/><circle class="cls-4" cx="332.46" cy="355.89" r="8.24"/><path class="cls-8" d="M313.56,376.8c0,1.66-3.13,3-7,3s-7-1.35-7-3"/><path class="cls-9" d="M321.48,405.45c0,6.21-6.52,11.24-14.56,11.24s-14.56-5-14.56-11.24"/><path class="cls-9" d="M292.37,405.9c-1-4.27,0-8.33,2.63-10.14a7.44,7.44,0,0,1,4.61-1.06c3.86,0.26,4.27,3,7.39,3.16s4.11-2.77,8.13-2.54a7,7,0,0,1,3.53,1.07c2.53,1.72,3.57,5.47,2.82,9.5"/><path class="cls-10" d="M295.44,403.9c0.26-1.79,7-2.44,9.68-2.56,6.05-.28,13.46,1.19,13.69,3.29,0.17,1.55-3.58,3.15-6.1,3.78C304.69,410.42,295.12,406.11,295.44,403.9Z"/><rect class="cls-11" x="325.93" y="368.86" width="19.48" height="9.45" rx="4.33" ry="4.33"/><rect class="cls-11" x="267.49" y="368.86" width="19.48" height="9.45" rx="4.33" ry="4.33"/><rect class="cls-5" x="288.31" y="417.49" width="35.91" height="46.1" rx="11.44" ry="11.44"/><path class="cls-5" d="M241,511.8c-0.13-4.94-.48-34.57,19.52-51.69,13.17-11.27,28.25-11.21,45.76-11.14,18.38,0.08,34.5.14,47.9,12.7,18.49,17.31,17.62,45.08,17.39,50.13"/><path class="cls-12" d="M267.56,348.46c0.25-.39,5.07-7.74,13.66-7.53a16.07,16.07,0,0,1,11.35,5.44"/><line class="cls-6" x1="249.8" y1="371.8" x2="249.5" y2="412.33"/><path class="cls-12" d="M345,347.81c-0.27-.38-5.45-7.47-14-6.84a16.07,16.07,0,0,0-11.06,6"/><path class="cls-4" d="M263.88,291.41c4.08-.23,8.08,4.13,9.79,7.34,2.09,3.95,1.13,7.38-1.38,22-2.47,14.41-1.95,13.68-2.7,15.48-5.09,12.12-14.24,13.81-13.69,19.94,0.68,7.58,15,8.41,16.14,16.76,0.69,5-3.9,9.35-9.77,14.92-4.08,3.87-19.87,18.84-26.78,14.85-2.68-1.55-5.06-6.56,4.74-49.35C253.89,293.75,261.26,291.56,263.88,291.41Z"/><rect class="cls-13" x="303.6" y="340.53" width="6.47" height="6.47" rx="3.24" ry="3.24" transform="translate(172.56 -97.02) rotate(24.81)"/><line class="cls-6" x1="306.86" y1="280.71" x2="306.56" y2="321.25"/><path class="cls-14" d="M308.1,454.88c-22.16.75-26.64-6.46-37.88-2.4-19.88,7.19-26.74,37.34-27.52,40.73a68.07,68.07,0,0,0-1.58,10.89l92.38-53.34A102.63,102.63,0,0,1,308.1,454.88Z"/><path class="cls-14" d="M368.87,486.76l-43.37,25h46.13a65.72,65.72,0,0,0-.69-15.86A75.6,75.6,0,0,0,368.87,486.76Z"/><circle class="cls-7" cx="306.55" cy="326.59" r="5.16"/><circle class="cls-7" cx="249.65" cy="413.25" r="5.16"/><path class="cls-14" d="M214,471c-41.66-59.85,24.7-209.75,92.43-211.22,45.73-1,79.89,65.95,86.22,78.38,17.12,33.62,44.13,112.85,3,148.93-37.4,32.81-111.84,12.93-114.56-4.82-3-19.51,81.32-25.45,97.3-77.49,14.76-48.07-33.42-120.52-71.94-118.6-38.19,1.9-73.2,77.23-65.62,131.13,1,7,2.44,11.78,3.92,20h0a145.28,145.28,0,0,0,16.43,48.23c6.23,11.61,10.71,17.75,8.86,19.83C265.94,510,229.89,493.75,214,471Z"/><path class="cls-7" d="M352.21,459.84a42.83,42.83,0,0,0-18.7-9.08L241.13,504.1c-0.21,2.93-.24,5.54-0.19,7.7H325.5l43.37-25C366.55,478.86,361.86,467.94,352.21,459.84Z"/></svg>