<svg id="Layer_1" data-name="Layer 1" xmlns="http://www.w3.org/2000/svg" viewBox="0 0 595.28 841.89"><defs><style>.cls-1{fill:#f27d2f;}.cls-2{fill:#fff;}.cls-3{fill:#2bb673;}.cls-11,.cls-17,.cls-4{fill:none;}.cls-11,.cls-4{stroke:#231f20;}.cls-4{stroke-miterlimit:10;stroke-width:3px;}.cls-5{fill:#ea532a;}.cls-6{fill:#fccb7f;}.cls-7{fill:#ffb5a3;}.cls-8{fill:#231f20;}.cls-9{fill:#ea8048;}.cls-10{fill:#ed1c24;}.cls-11,.cls-14,.cls-15,.cls-17{stroke-linecap:round;stroke-linejoin:round;}.cls-11{stroke-width:2px;}.cls-12{fill:#39b54a;}.cls-13{fill:#009444;}.cls-14,.cls-15{fill:#c49a6c;stroke:#c49a6c;}.cls-14{stroke-width:2.03px;}.cls-15{stroke-width:2.02px;}.cls-16{fill:#fbb040;}.cls-17{stroke:#8b5e3c;stroke-width:9.14px;}</style></defs><title>icons</title><path class="cls-1" d="M391,195.74C461.22,227.79,510.14,299.8,510.14,383.5S461.22,539.22,391,571.26V195.74Z"/><path class="cls-2" d="M391,195.74V571.26a197.15,197.15,0,0,1-163.51,0V195.74A197.15,197.15,0,0,1,391,195.74Z"/><path class="cls-3" d="M227.54,195.74V571.26c-70.17-32-119.09-104-119.09-187.76S157.37,227.79,227.54,195.74Z"/><path class="cls-4" d="M227.54,195.74C157.37,227.79,108.45,299.8,108.45,383.5s48.92,155.72,119.09,187.76"/><path class="cls-4" d="M391,571.26c70.17-32,119.09-104,119.09-187.76S461.22,227.79,391,195.74"/><path class="cls-4" d="M391,195.74a197.15,197.15,0,0,0-163.51,0V571.26a197.15,197.15,0,0,0,163.51,0V195.74Z"/><path class="cls-5" d="M281,278.31A75.39,75.39,0,0,1,308.51,274a73.19,73.19,0,0,1,55.18,26.36,72.31,72.31,0,0,1,9.73,13.75,60.48,60.48,0,0,1,4.32,10.17c4.78,14.8,5.37,34.73,5.53,39.94,0.07,2.51.07,4.71,0.34,8.5,0.71,9.92,2.48,18.1,3.92,25.94,1,5.37,2.39,11.64,4.69,20,4.3,15.59,9.5,24.16,11.09,41.74a112.68,112.68,0,0,1-1.71,32.11c-2.3,12.53-5.36,18.16-7.77,21.72-3.55,5.25-6.32,9.32-11.54,11.44-9.16,3.72-15.07-2.86-30.19-1.05-22,2.63-22,15.92-42.67,19.26-20.94,3.39-38.33-7.48-50.35-15-12.74-8-25-15.59-33.28-33.18-1.76-3.71-11.27-23.81-7.68-47.09,2.74-17.76,13.19-38.41,14.51-54.58,1.06-13-1-16.59-2-26h0a71.84,71.84,0,0,1-.56-10.43c1-38,23.86-61.31,23.86-61.31A71.33,71.33,0,0,1,281,278.31Z"/><rect class="cls-6" x="249.18" y="291.93" width="116.69" height="144.49" rx="53.35" ry="53.35"/><rect class="cls-6" x="291.79" y="418.14" width="35.91" height="46.1" rx="11.44" ry="11.44"/><path class="cls-6" d="M244.46,512.45c-0.13-4.94-.48-34.57,19.52-51.69,13.17-11.27,28.25-11.21,45.76-11.14,18.38,0.08,34.5.14,47.9,12.7,18.49,17.31,17.62,45.08,17.39,50.13"/><rect class="cls-7" x="269.25" y="367.97" width="19.48" height="9.45" rx="4.33" ry="4.33"/><path class="cls-5" d="M267.37,292.06c4.08-.23,8.09,4.13,9.79,7.34,2.09,3.95,1.13,7.38-1.38,22-2.47,14.41-1.95,13.68-2.7,15.48C268,349,258.84,350.74,259.38,356.86c0.68,7.58,15,8.41,16.14,16.76,0.69,5-3.9,9.35-9.77,14.92-4.08,3.87-19.87,18.84-26.78,14.85-2.68-1.55-5.06-6.56,4.74-49.35C257.38,294.4,264.74,292.21,267.37,292.06Z"/><path class="cls-5" d="M281.62,281c-1.41,1.44-12.09,12.58-9.36,25,3.66,16.61,28.25,21,34.75,21,2,0,4.08-.2,4.08-0.2,6.68-1.67,11.66-3,13.1-3.65,7.4-3.21,23.51-3.73,29.63,3.25,6,6.81-3.54,13.93.82,33.44,0,0,2.66,12.18,1.35,18.74a31.32,31.32,0,0,1-3.74,9.8c1.11,0.54,24.87-26.19,20.34-55.46-3-19.44-17.64-32.41-22.78-36.7C322.45,273.28,287.27,279.82,281.62,281Z"/><circle class="cls-8" cx="281.81" cy="355.01" r="8.24"/><circle class="cls-8" cx="334.21" cy="355.01" r="8.24"/><path class="cls-9" d="M315.31,375.91c0,1.66-3.13,3-7,3s-7-1.35-7-3"/><path class="cls-10" d="M323.23,404.56c0,6.21-6.52,11.24-14.56,11.24s-14.56-5-14.56-11.24"/><path class="cls-10" d="M294.12,405c-1-4.27,0-8.33,2.63-10.14a7.44,7.44,0,0,1,4.61-1.06c3.86,0.26,4.27,3,7.39,3.16s4.11-2.77,8.13-2.54a7,7,0,0,1,3.53,1.07c2.53,1.72,3.57,5.47,2.82,9.5"/><path class="cls-2" d="M297.2,403c0.26-1.79,7-2.44,9.68-2.56,6.05-.28,13.46,1.19,13.69,3.29,0.17,1.55-3.58,3.15-6.1,3.78C306.44,409.53,296.88,405.22,297.2,403Z"/><rect class="cls-7" x="327.69" y="367.97" width="19.48" height="9.45" rx="4.33" ry="4.33"/><path class="cls-11" d="M269.31,347.57c0.25-.39,5.07-7.74,13.66-7.53a16.07,16.07,0,0,1,11.35,5.44"/><path class="cls-11" d="M346.75,346.92c-0.27-.38-5.45-7.47-14-6.84a16.07,16.07,0,0,0-11.06,6"/><path class="cls-12" d="M244.48,513.07a66.68,66.68,0,0,1,.86-17.87c1-5.25,5-26.27,18.68-33.82,12.75-7,20.17,5.19,46.64,5,25.92-.19,32.84-12,45.09-5.27,0,0,15.06,8.33,18.88,35.53a91.37,91.37,0,0,1,.7,13c0,1.44-.11,2.63-0.16,3.44"/><path class="cls-13" d="M345,513H274.29a87.55,87.55,0,0,1,5.28-52.48c0.7,0.23,1.72.56,2.94,0.93,7.09,2.14,16.3,4.92,27.5,4.91,11.44,0,20.86-2.93,27.6-5,1-.31,1.81-0.58,2.37-0.76A82.65,82.65,0,0,1,345,513Z"/><line class="cls-14" x1="280.04" y1="461.68" x2="346.82" y2="486.77"/><line class="cls-15" x1="339.64" y1="461.73" x2="272.94" y2="486.05"/><line class="cls-15" x1="272.94" y1="486.05" x2="344.33" y2="512.19"/><line class="cls-14" x1="346.82" y1="486.77" x2="275.16" y2="512"/><path class="cls-13" d="M371,276.16c5.4,12.59-25.67,37-69.41,54.42S218,352,212.6,339.41s25.67-37,69.41-54.42S365.58,263.57,371,276.16Z"/><path class="cls-13" d="M237.47,316.51l0.08,0.16c3.59,7.27,2.29,6.65,3.64,8,5.22,5.35,23.25,6,80.9-16.07a26.07,26.07,0,0,0,12.41-10,15.65,15.65,0,0,0,2-5s0.07-.33.12-0.67c0.78-4.84-.32-10.43-1.85-15.28Z"/><path class="cls-13" d="M320.1,251.73c-17.57-15.27-50.77-2.95-56.42-.85-26.2,9.73-34.53,27.22-35.16,28.83a26.4,26.4,0,0,0-1.76,9.69h0c0,3.08,1.19,6.93,2.85,10.95l97.72-39C324.86,257,323,254.25,320.1,251.73Z"/><path class="cls-16" d="M329.82,265.79c-0.92-1.66-1.73-3.13-2.48-4.46l-97.72,39c2.32,5.59,5.56,11.51,7.85,16.15l97.32-38.86A72.69,72.69,0,0,0,329.82,265.79Z"/><path class="cls-17" d="M292.36,298l-9.57,3.82a10.32,10.32,0,0,1-13.27-5.31l-1.89-4.41a9.71,9.71,0,0,1,5.5-12.8l9.57-3.82A10.32,10.32,0,0,1,296,280.75l1.89,4.41A9.71,9.71,0,0,1,292.36,298Z"/><path class="cls-3" d="M360,323.17c0.21,0.15,2.56-2.2,4.41-5.39,1.14-2,1.12-2.59,2.38-4.28s2.15-2.86,3.94-3.37a5.94,5.94,0,0,1,3.91.28,5.06,5.06,0,0,1,2.88,2.76c0.82,2.61-1.94,5.62-1.33,6.08,0.23,0.17.57-.27,1.32-0.23a3.09,3.09,0,0,1,2,1.28,5.06,5.06,0,0,1,1.06,3.49c-0.31,3-3.67,4.51-4,4.64-1.15.49-2.68,0.76-6.32-.08a47.11,47.11,0,0,1-10.1-3.86,21.84,21.84,0,0,0,6.17,3.77c3.1,1.38,4.45,1.42,5.72,3a5.86,5.86,0,0,1,1.27,4.5c-0.32,1.86-1.72,3.79-3.48,4.13-2,.4-4-1.45-4.46-0.89-0.22.27,0.26,0.67,0.19,1.4-0.13,1.4-2.18,2.59-4,2.76a4.85,4.85,0,0,1-2.93-.6c-2-1.18-2.42-3.62-2.64-4.9,0,0-.57-3.4,2.57-12.7l-1.77,1.85a1,1,0,0,1-.83-0.28c-0.27-.63,2.06-2.12,2-2.23s-1,.36-3.64,2.16c-5.06,3.51-5.82,5.06-8.22,5.27a5.85,5.85,0,0,1-4.09-1.18c-1.25-1-2.35-2.91-1.92-4.58,0.54-2.1,3.27-3,3-3.74-0.13-.31-0.61-0.14-1.2-0.5-1.15-.69-1.46-2.56-1.23-3.89a4.79,4.79,0,0,1,2.83-3.52,5.45,5.45,0,0,1,3.63-.08c5.88,1.62,11.55,8.78,11.5,8.83s-4.51-5.54-7.15-9.29a10.2,10.2,0,0,1-1-1.87c-0.4-1-2.06-4.94-.21-6.74,1.27-1.24,3.83-1.1,5.37-.13,1.37,0.87,1.88,2.39,2.39,2.22s0.11-1.13.57-2.17a4.51,4.51,0,0,1,4.53-2.34c2.45,0.37,3.79,3.08,4.1,4.95a7.27,7.27,0,0,1-.36,3.36c-0.67,2.39-1.76,3.49-3.52,6.09S359.77,323,360,323.17Z"/></svg>