<svg id="Layer_1" data-name="Layer 1" xmlns="http://www.w3.org/2000/svg" viewBox="0 0 595.28 841.89"><defs><style>.cls-1{fill:#ed1c24;}.cls-2{fill:#fff;}.cls-3{fill:#009246;}.cls-4,.cls-9{fill:none;stroke:#231f20;}.cls-4{stroke-miterlimit:10;stroke-width:3px;}.cls-5{fill:#231f20;}.cls-6{fill:#fccb7f;}.cls-7{fill:#ffb5a3;}.cls-8{fill:#ea8048;}.cls-9{stroke-linecap:round;stroke-linejoin:round;stroke-width:2px;}.cls-10{fill:#e6e7e8;}</style></defs><title>icons</title><path class="cls-1" d="M378.61,210.24C448.78,242.29,497.7,314.3,497.7,398S448.78,553.72,378.61,585.76V210.24Z"/><path class="cls-2" d="M378.61,210.24V585.76a197.15,197.15,0,0,1-163.51,0V210.24A197.15,197.15,0,0,1,378.61,210.24Z"/><path class="cls-3" d="M215.1,210.24V585.76C144.93,553.72,96,481.71,96,398S144.93,242.29,215.1,210.24Z"/><path class="cls-4" d="M215.1,210.24C144.93,242.29,96,314.3,96,398S144.93,553.72,215.1,585.76"/><path class="cls-4" d="M378.61,585.76c70.17-32,119.09-104,119.09-187.76S448.78,242.29,378.61,210.24"/><path class="cls-4" d="M378.61,210.24a197.15,197.15,0,0,0-163.51,0V585.76a197.15,197.15,0,0,0,163.51,0V210.24Z"/><path class="cls-5" d="M268.3,291.42a75.39,75.39,0,0,1,27.51-4.28A73.19,73.19,0,0,1,351,313.49a72.31,72.31,0,0,1,9.73,13.75A60.47,60.47,0,0,1,365,337.41c4.78,14.8,5.37,34.73,5.53,39.94,0.07,2.51.07,4.71,0.34,8.5,0.71,9.92,2.48,18.1,3.92,25.94,1,5.37,2.39,11.64,4.69,20,4.3,15.59,9.5,24.16,11.09,41.74a112.67,112.67,0,0,1-1.71,32.11c-2.3,12.53-5.36,18.16-7.77,21.72-3.55,5.25-6.32,9.32-11.54,11.44-9.16,3.72-15.07-2.86-30.19-1.05-22,2.63-22,15.92-42.67,19.26-20.94,3.39-38.33-7.48-50.35-15-12.74-8-25-15.59-33.28-33.18-1.76-3.71-11.27-23.81-7.68-47.09,2.74-17.76,13.19-38.41,14.51-54.58,1.06-13-1-16.59-2-26h0a71.83,71.83,0,0,1-.56-10.43c1-38,23.86-61.31,23.86-61.31A71.33,71.33,0,0,1,268.3,291.42Z"/><rect class="cls-6" x="237.14" y="304.6" width="116.69" height="144.49" rx="53.35" ry="53.35"/><rect class="cls-6" x="279.75" y="430.82" width="35.91" height="46.1" rx="11.44" ry="11.44"/><path class="cls-6" d="M232.41,525.13c-0.13-4.94-.48-34.57,19.52-51.69,13.17-11.27,28.25-11.21,45.76-11.14,18.38,0.08,34.5.14,47.9,12.7,18.49,17.31,17.62,45.08,17.39,50.13"/><rect class="cls-7" x="257.2" y="380.64" width="19.48" height="9.45" rx="4.33" ry="4.33"/><path class="cls-5" d="M255.32,304.74c4.08-.23,8.09,4.13,9.79,7.34,2.09,3.95,1.13,7.38-1.38,22-2.47,14.41-1.95,13.68-2.7,15.48-5.09,12.12-14.24,13.81-13.69,19.94,0.68,7.58,15,8.41,16.14,16.76,0.69,5-3.9,9.35-9.77,14.92-4.08,3.87-19.87,18.84-26.78,14.85-2.68-1.55-5.06-6.56,4.74-49.35C245.33,307.08,252.7,304.89,255.32,304.74Z"/><path class="cls-5" d="M269.58,293.63c-1.41,1.44-12.09,12.58-9.36,25,3.66,16.61,28.25,21,34.75,21,2,0,4.08-.2,4.08-0.2,6.68-1.67,11.66-3,13.1-3.65,7.4-3.21,23.51-3.73,29.63,3.25,6,6.81-3.54,13.93.82,33.44,0,0,2.66,12.18,1.35,18.74a31.32,31.32,0,0,1-3.74,9.8c1.11,0.54,24.87-26.19,20.34-55.46-3-19.44-17.64-32.41-22.78-36.7C310.4,286,275.23,292.49,269.58,293.63Z"/><circle class="cls-5" cx="269.77" cy="367.68" r="8.24"/><circle class="cls-5" cx="322.17" cy="367.68" r="8.24"/><path class="cls-8" d="M303.27,388.59c0,1.66-3.13,3-7,3s-7-1.35-7-3"/><path class="cls-1" d="M311.19,417.23c0,6.21-6.52,11.24-14.56,11.24s-14.56-5-14.56-11.24"/><path class="cls-1" d="M282.08,417.68c-1-4.27,0-8.33,2.63-10.14a7.44,7.44,0,0,1,4.61-1.06c3.86,0.26,4.27,3,7.39,3.16s4.11-2.77,8.13-2.54a7,7,0,0,1,3.53,1.07c2.53,1.72,3.57,5.47,2.82,9.5"/><path class="cls-2" d="M285.15,415.68c0.26-1.79,7-2.44,9.68-2.56,6.05-.28,13.46,1.19,13.69,3.29,0.17,1.55-3.58,3.15-6.1,3.78C294.4,422.21,284.83,417.89,285.15,415.68Z"/><rect class="cls-7" x="315.64" y="380.64" width="19.48" height="9.45" rx="4.33" ry="4.33"/><path class="cls-9" d="M257.27,360.25c0.25-.39,5.07-7.74,13.66-7.53a16.07,16.07,0,0,1,11.35,5.44"/><path class="cls-9" d="M334.71,359.59c-0.27-.38-5.45-7.47-14-6.84a16.07,16.07,0,0,0-11.06,6"/><path class="cls-10" d="M232.44,525.74a62.22,62.22,0,0,1,5.75-33.86c2.75-5.63,11.14-22.8,27.06-26.78C277,462.18,280,469.57,298.68,469c16-.53,17.16-6.08,27.54-4.41,19.86,3.19,30.74,25.91,32.19,29.06a59,59,0,0,1,4.71,32.15"/><path class="cls-1" d="M300.17,471.89l-8.44,9.27L288.2,485l-20.9-19,12-13.16Z"/><rect class="cls-1" x="301.97" y="454.83" width="17.79" height="28.26" transform="translate(473.08 -69.79) rotate(50.3)"/><rect class="cls-10" x="222.9" y="301.67" width="144.1" height="38.34" rx="9.56" ry="9.56"/><path class="cls-10" d="M229.72,321.68l-0.38-.07Z"/><path class="cls-10" d="M237.32,322.38h0Z"/><path class="cls-10" d="M239.11,322.35l-0.53,0Z"/><path class="cls-10" d="M233.49,322.2l-0.2,0Z"/><path class="cls-10" d="M231.64,322l-0.53-.08Z"/><path class="cls-10" d="M235.59,322.34l-0.45,0Z"/><path class="cls-10" d="M359.08,318.48l-1.11.15Z"/><path class="cls-10" d="M371.4,314.84c-0.63.3-1.27,0.58-1.9,0.84C370.13,315.41,370.77,315.13,371.4,314.84Z"/><path class="cls-10" d="M260,317h0a45.5,45.5,0,0,1-5.63,2.48A45.45,45.45,0,0,0,260,317Z"/><path class="cls-10" d="M361.14,318.13l-1.29.23Z"/><path class="cls-10" d="M240.31,322.29l-0.46,0Z"/><path class="cls-10" d="M227.65,321.25l-0.49-.12Z"/><path class="cls-10" d="M222.71,265.67h0c-8.8,3.63-15.76,10.48-18.72,18.44C207,276.14,213.91,269.29,222.71,265.67Z"/><path class="cls-10" d="M295.95,227.57a45.82,45.82,0,0,0-13.57,7.32h0A45.83,45.83,0,0,1,295.95,227.57Z"/><path class="cls-10" d="M389.65,273.71a28.19,28.19,0,0,1,2.3,10A28.14,28.14,0,0,0,389.65,273.71Z"/><path class="cls-10" d="M252.33,229.33c-2.45.4-17.34,3.29-25,14.76C235,232.63,249.88,229.73,252.33,229.33Z"/><path class="cls-10" d="M225.93,320.78l-0.57-.17Z"/><path class="cls-10" d="M224.16,320.22l-0.51-.17Z"/><path class="cls-10" d="M222,319.4a35.83,35.83,0,0,1-6.55-3.56A35.81,35.81,0,0,0,222,319.4Z"/><path class="cls-10" d="M225,264.8h0c1-.33,2-0.64,3-0.89C227.05,264.16,226,264.46,225,264.8Z"/><path class="cls-10" d="M241.44,322.21l-0.35,0Z"/><path class="cls-10" d="M245.72,263.73l-0.53-.1Z"/><path class="cls-10" d="M244.61,263.52l-0.58-.1Z"/><path class="cls-10" d="M243.43,263.32l-0.61-.09Z"/><path class="cls-10" d="M242.14,263.15l-0.94-.1Z"/><path class="cls-10" d="M246.76,264l-0.42-.09Z"/><path class="cls-10" d="M287.67,240.33l-0.38-.35c-0.36-.33-0.72-0.66-1.1-1,0.38,0.34.74,0.66,1.1,1Z"/><path class="cls-10" d="M285,238c-0.6-.46-1.29-1-2.16-1.5C283.66,237,284.36,237.51,285,238Z"/><polygon class="cls-10" points="353.22 272.78 353.22 272.78 353.22 273.32 353.22 272.78"/><path class="cls-10" d="M240.32,263l-0.64,0Z"/><path class="cls-10" d="M373.89,257.56a49.49,49.49,0,0,0-18.47-7.31l0,0.07a30.79,30.79,0,0,1-1,22.83,1.29,1.29,0,0,1-1.19.7,1.48,1.48,0,0,1-.45-0.07,1.21,1.21,0,0,1-.71-0.56,0.92,0.92,0,0,1,0-.82A28.92,28.92,0,0,0,353,251c-2.95-8.21-9.59-14.87-19.74-19.79A48.47,48.47,0,0,0,306,226.41a45.42,45.42,0,0,0-22.53,9.13l0.12,0.07a29.08,29.08,0,0,1,4.67,3.65,36.38,36.38,0,0,0,2.87,2.45c7.79,5.94,19,9.23,33.42,9.79a1.36,1.36,0,0,1,.88.35,1,1,0,0,1,.33.78,1,1,0,0,1-.43.79,1.35,1.35,0,0,1-.93.23c-15-.58-26.73-4.06-35-10.34a39.09,39.09,0,0,1-3-2.58,27.06,27.06,0,0,0-4.34-3.4c-0.35-.22-0.69-0.42-1-0.63a1.3,1.3,0,0,1-.49-0.25,0.92,0.92,0,0,1-.07-0.09c-11.14-6.59-21.09-6.95-27.58-6-0.78.11-19.08,2.87-26.14,17.18a24.53,24.53,0,0,0-1.92,16.2c1-.32,1.95-0.61,2.95-0.85a42.58,42.58,0,0,1,20.36.29,1.23,1.23,0,0,1,.75.52,0.93,0.93,0,0,1,.1.82,1.32,1.32,0,0,1-1.58.72,39.66,39.66,0,0,0-18.93-.28c-12.79,3.08-22.86,13.11-24.49,24.4-1.37,9.44,3.43,16.71,5.55,19.4a32.47,32.47,0,0,0,13.06,9.7c10.67,4.46,20.88,2.55,24.23,1.93a44.9,44.9,0,0,0,12.86-4.48,1.42,1.42,0,0,1,1.75.34,0.93,0.93,0,0,1,.11.24,69.74,69.74,0,0,0,27.39-.43,62.11,62.11,0,0,0,27.29-13.39,0.86,0.86,0,0,1,0-.16,1.09,1.09,0,0,1,.56-0.67,1.45,1.45,0,0,1,1-.14,1.27,1.27,0,0,1,.8.48,39.3,39.3,0,0,0,21.34,14.21c2.85,0.78,17.78,4.33,32.15-3.06,11.83-6.08,19.17-17.67,18.7-29.52C390.29,273.86,384.32,264.55,373.89,257.56Z"/><path class="cls-10" d="M369,315.88c-0.47.19-.94,0.37-1.41,0.54C368,316.24,368.51,316.06,369,315.88Z"/><path class="cls-10" d="M367,316.6c-0.46.16-.92,0.31-1.38,0.45C366.08,316.91,366.54,316.76,367,316.6Z"/><path class="cls-10" d="M365.07,317.2l-1.38.38Z"/><path class="cls-10" d="M239,262.89l-0.67,0Z"/><path class="cls-10" d="M363.12,317.71l-1.36.3Z"/><path class="cls-10" d="M236.93,262.85h0Z"/><path class="cls-10" d="M235.1,262.9l-0.33,0Z"/><path class="cls-10" d="M230.65,263.39l-0.44.08Z"/><path class="cls-10" d="M233,263.07l-0.38,0Z"/><path class="cls-10" d="M375.46,255.87a52.63,52.63,0,0,0-20.88-8h-0.14c-3.51-7.64-10.19-13.89-19.9-18.61a51.34,51.34,0,0,0-28.92-5,48.14,48.14,0,0,0-24.29,10c-11.61-6.68-22-7-28.89-6-0.83.12-20.46,3.08-28.06,18.47a26.44,26.44,0,0,0-2,17.91c-11.13,4.5-19.46,14-21,24.48-1.47,10.15,3.68,18,6,20.86a34.93,34.93,0,0,0,14,10.43,41.33,41.33,0,0,0,16,3.09,52.19,52.19,0,0,0,9.89-1A47.72,47.72,0,0,0,261,317.71a1.16,1.16,0,0,0,.24-0.19,71.66,71.66,0,0,0,13,1.18,70,70,0,0,0,15-1.62,63.54,63.54,0,0,0,27.48-13.34,41.89,41.89,0,0,0,22.36,14.67,51.48,51.48,0,0,0,13,1.64h0a45.88,45.88,0,0,0,21.19-4.9c12.6-6.48,20.42-18.82,19.92-31.44C392.8,273.14,386.49,263.26,375.46,255.87ZM392,283.75a28.19,28.19,0,0,0-2.3-10A28.14,28.14,0,0,1,392,283.75Zm-96-56.17a45.83,45.83,0,0,0-13.57,7.32h0A45.82,45.82,0,0,1,295.95,227.57Zm-43.62,1.76c-2.45.4-17.34,3.3-25,14.76C235,232.62,249.88,229.73,252.33,229.33Zm-29.61,36.34h0c-8.8,3.63-15.76,10.48-18.72,18.44C207,276.14,213.91,269.29,222.71,265.67Zm2.33-.87h0c1-.33,2-0.64,3-0.89C227.05,264.16,226,264.46,225,264.8Zm-9.6,51A35.83,35.83,0,0,0,222,319.4,35.81,35.81,0,0,1,215.44,315.84Zm8.21,4.2,0.51,0.17Zm1.71,0.57,0.57,0.17Zm1.81,0.51,0.49,0.12Zm2.17,0.49,0.38,0.07Zm1.76,0.3,0.53,0.08Zm2.19,0.27,0.2,0Zm1.85,0.13,0.45,0Zm2.18,0.06h0Zm1.26,0,0.53,0Zm1.27,0,0.46,0Zm1.25-.08,0.35,0ZM260,317h0a45.45,45.45,0,0,1-5.63,2.48A45.5,45.5,0,0,0,260,317Zm109.5-1.28c0.63-.26,1.27-0.54,1.9-0.84C370.77,315.13,370.13,315.41,369.49,315.68Zm-11.52,3,1.11-.15Zm1.89-.26,1.29-.23Zm1.9-.35,1.36-.3Zm1.92-.44,1.38-.38Zm1.94-.53c0.46-.14.92-0.29,1.38-0.45C366.54,316.76,366.08,316.91,365.62,317Zm1.94-.64c0.47-.17.94-0.35,1.41-0.54C368.51,316.06,368,316.24,367.56,316.41ZM372,313.3c-14.37,7.39-29.3,3.84-32.15,3.06a39.3,39.3,0,0,1-21.34-14.21,1.27,1.27,0,0,0-.8-0.48,1.45,1.45,0,0,0-1,.14,1.09,1.09,0,0,0-.56.67,0.86,0.86,0,0,0,0,.16A62.11,62.11,0,0,1,288.89,316a69.74,69.74,0,0,1-27.39.43,0.93,0.93,0,0,0-.11-0.24,1.42,1.42,0,0,0-1.75-.34,44.9,44.9,0,0,1-12.86,4.48c-3.35.63-13.56,2.53-24.23-1.93a32.47,32.47,0,0,1-13.06-9.7c-2.12-2.69-6.92-10-5.55-19.4,1.63-11.28,11.7-21.32,24.49-24.4a39.66,39.66,0,0,1,18.93.28,1.32,1.32,0,0,0,1.58-.72,0.93,0.93,0,0,0-.1-0.82,1.23,1.23,0,0,0-.75-0.52,42.58,42.58,0,0,0-20.36-.29c-1,.24-2,0.53-2.95.85a24.53,24.53,0,0,1,1.92-16.2c7.06-14.31,25.36-17.07,26.14-17.18,6.49-.93,16.43-0.57,27.58,6a0.92,0.92,0,0,0,.07.09,1.3,1.3,0,0,0,.49.25c0.35,0.21.69,0.41,1,.63a27.06,27.06,0,0,1,4.34,3.4,39.09,39.09,0,0,0,3,2.58c8.23,6.28,20,9.76,35,10.34a1.35,1.35,0,0,0,.93-0.23,1,1,0,0,0,.43-0.79,1,1,0,0,0-.33-0.78,1.36,1.36,0,0,0-.88-0.35c-14.39-.56-25.64-3.85-33.42-9.79a36.38,36.38,0,0,1-2.87-2.45,29.08,29.08,0,0,0-4.67-3.65l-0.12-.07A45.42,45.42,0,0,1,306,226.41a48.47,48.47,0,0,1,27.31,4.76c10.15,4.92,16.79,11.58,19.74,19.79a28.92,28.92,0,0,1-1,21.44,0.92,0.92,0,0,0,0,.82,1.21,1.21,0,0,0,.71.56,1.48,1.48,0,0,0,.45.07,1.29,1.29,0,0,0,1.19-.7,30.79,30.79,0,0,0,1-22.83l0-.07a49.49,49.49,0,0,1,18.47,7.31c10.43,7,16.4,16.3,16.79,26.22C391.16,295.63,383.82,307.22,372,313.3ZM230.21,263.47l0.44-.08Zm2.43-.36,0.38,0Zm2.13-.18,0.33,0Zm2.17-.07h0Zm1.36,0,0.67,0Zm1.4,0.06,0.64,0ZM241.2,263l0.94,0.1Zm1.61,0.19,0.61,0.09Zm1.22,0.18,0.58,0.1Zm1.16,0.21,0.53,0.1Zm1.15,0.24,0.42,0.09Zm36.46-27.4c0.87,0.55,1.56,1,2.16,1.5C284.36,237.51,283.66,237,282.8,236.47Zm3.39,2.52c0.38,0.34.74,0.66,1.1,1l0.38,0.35-0.38-.35C286.93,239.65,286.57,239.32,286.19,239Zm67,33.79v0h0Z"/><path class="cls-5" d="M277.12,398.29c0.44-.64,2.8,1.89,6,1.31,1.71-.31,1.59-1.12,6-3.59,2.82-1.58,3.83-1.78,4.78-1.47s1.37,1.13,2.47,1.14,1.49-.83,2.62-1.14c0.84-.24,1.76-0.09,4,1.14,4.15,2.27,4.09,3.46,6,3.92,3.26,0.78,5.76-2.06,6.33-1.31s-1.31,3.79-4,5.55a9.61,9.61,0,0,1-6.63,1.63c-3.83-.61-4.9-3.68-7.71-3.1-1.24.25-1.07,0.86-3.24,1.8a14,14,0,0,1-5.4,1.14,12.71,12.71,0,0,1-7.1-2C278.66,401.65,276.7,398.9,277.12,398.29Z"/><circle class="cls-5" cx="281.65" cy="490.2" r="2.16"/><circle class="cls-5" cx="281.65" cy="499.5" r="2.16"/><circle class="cls-5" cx="281.65" cy="508.81" r="2.16"/><circle class="cls-5" cx="281.65" cy="518.12" r="2.16"/><circle class="cls-5" cx="312.81" cy="490.2" r="2.16"/><circle class="cls-5" cx="312.81" cy="499.5" r="2.16"/><circle class="cls-5" cx="312.81" cy="508.81" r="2.16"/><circle class="cls-5" cx="312.81" cy="518.12" r="2.16"/></svg>