<svg id="Layer_1" data-name="Layer 1" xmlns="http://www.w3.org/2000/svg" viewBox="0 0 595.28 841.89"><defs><style>.cls-1{fill:#009444;}.cls-1,.cls-10,.cls-2,.cls-3{stroke:#231f20;}.cls-1,.cls-2,.cls-3{stroke-miterlimit:10;}.cls-1,.cls-2{stroke-width:3.16px;}.cls-2{fill:#383334;}.cls-13,.cls-3{fill:#fff200;}.cls-3{stroke-width:2.65px;}.cls-4{fill:#231f20;}.cls-5{fill:#bb9765;}.cls-6{fill:#ea8048;}.cls-7{fill:#ed1c24;}.cls-8{fill:#fff;}.cls-9{fill:#ba685a;}.cls-10{fill:none;stroke-linecap:round;stroke-linejoin:round;stroke-width:2px;}.cls-11{fill:#2abb9e;}.cls-12{fill:#39b54a;}.cls-14{fill:#8dc63f;}</style></defs><title>icons</title><path class="cls-1" d="M290.45,177.68c-81.59,0-151.9,50.24-183.9,122.59h367.8C442.35,227.92,372,177.68,290.45,177.68Z"/><path class="cls-2" d="M290.45,598.55c76.22,0,142.58-43.84,177.08-108.59H113.37C147.87,554.71,214.23,598.55,290.45,598.55Z"/><path class="cls-3" d="M474.35,300.27H106.55A218.27,218.27,0,0,0,113.37,490H467.54A218.27,218.27,0,0,0,474.35,300.27Z"/><path class="cls-4" d="M263.09,254.52a75.39,75.39,0,0,1,27.51-4.28,73.19,73.19,0,0,1,55.18,26.36,72.3,72.3,0,0,1,9.73,13.75,60.46,60.46,0,0,1,4.32,10.17c4.78,14.8,5.37,34.73,5.53,39.94,0.07,2.51.07,4.71,0.34,8.5,0.71,9.92,2.48,18.1,3.92,25.94,1,5.37,2.39,11.64,4.69,20,4.3,15.59,9.5,24.16,11.09,41.74a112.67,112.67,0,0,1-1.71,32.11c-2.3,12.53-5.36,18.16-7.77,21.72-3.55,5.25-6.32,9.32-11.54,11.44-9.16,3.72-15.07-2.86-30.19-1.05-22,2.63-22,15.92-42.67,19.26-20.94,3.39-38.33-7.48-50.35-15-12.74-8-25-15.59-33.28-33.18-1.76-3.71-11.27-23.81-7.68-47.09,2.74-17.76,13.19-38.41,14.51-54.58,1.06-13-1-16.59-2-26h0a71.84,71.84,0,0,1-.56-10.43c1-38,23.86-61.31,23.86-61.31A71.33,71.33,0,0,1,263.09,254.52Z"/><rect class="cls-5" x="229.93" y="267.71" width="116.69" height="144.49" rx="53.35" ry="53.35"/><path class="cls-4" d="M262.37,256.74c-1.42,1.44-12.09,12.58-9.36,25,3.66,16.61,28.25,21,34.75,21,2,0,4.08-.2,4.08-0.2,6.68-1.67,11.66-3,13.1-3.65,7.79-3.38,22.87-3.62,29.63,3.25,9.85,10-2,34.06,2.16,52.18a52.42,52.42,0,0,1,1.3,10.28,47.34,47.34,0,0,1-2.82,16.91c0.24,0.08,5.4-12.35,11.1-33.53,5.51-20.47,8.27-30.7,7-39.32-2.92-20-18.18-32.86-22.78-36.7C303.19,249.06,268,255.6,262.37,256.74Z"/><circle class="cls-4" cx="264.29" cy="332.32" r="8.24"/><circle class="cls-4" cx="316.69" cy="332.32" r="8.24"/><path class="cls-6" d="M297.79,353.23c0,1.66-3.13,3-7,3s-7-1.35-7-3"/><path class="cls-7" d="M305.71,381.87c0,6.21-6.52,11.24-14.56,11.24s-14.56-5-14.56-11.24"/><path class="cls-7" d="M276.6,382.32c-1-4.27,0-8.33,2.63-10.14a7.44,7.44,0,0,1,4.61-1.06c3.86,0.26,4.27,3,7.39,3.16s4.11-2.77,8.13-2.54a7,7,0,0,1,3.53,1.07c2.53,1.72,3.57,5.47,2.82,9.5"/><path class="cls-8" d="M279.68,380.33c0.26-1.79,7-2.44,9.68-2.56,6.05-.28,13.46,1.19,13.69,3.29,0.17,1.55-3.58,3.15-6.1,3.78C288.92,386.85,279.36,382.53,279.68,380.33Z"/><rect class="cls-9" x="310.17" y="345.28" width="19.48" height="9.45" rx="4.33" ry="4.33"/><rect class="cls-9" x="251.73" y="345.28" width="19.48" height="9.45" rx="4.33" ry="4.33"/><rect class="cls-5" x="272.54" y="393.92" width="35.91" height="46.1" rx="11.44" ry="11.44"/><path class="cls-5" d="M225.2,488.23c-0.13-4.94-.48-34.57,19.52-51.69,13.17-11.27,28.25-11.21,45.76-11.14,18.38,0.08,34.49.14,47.9,12.7,18.49,17.31,17.62,45.08,17.39,50.13"/><path class="cls-10" d="M251.79,324.89c0.25-.39,5.07-7.74,13.66-7.53a16.07,16.07,0,0,1,11.35,5.44"/><path class="cls-10" d="M329.23,324.24c-0.27-.38-5.45-7.47-14-6.84a16.07,16.07,0,0,0-11.06,6"/><path class="cls-11" d="M225.18,488.23a65,65,0,0,1,.85-18.61c1-5.36,5.2-26.64,18.69-33.08s21.28,9.06,45.63,9.12c25.09,0.07,33.65-16.34,46.1-9.39,13,7.23,18.27,33.13,18.72,36.1,0.06,0.38.1,0.67,0.13,0.88a69.52,69.52,0,0,1,.72,11.54c0,0.86-.06,2-0.16,3.44"/><path class="cls-4" d="M248.12,267.84c4.08-.23,8.09,4.13,9.79,7.34,2.09,3.95,1.13,7.38-1.38,22-2.47,14.41-1.95,13.68-2.7,15.48-5.09,12.12-14.24,13.81-13.69,19.94,0.68,7.58,15,8.41,16.14,16.76,0.69,5-3.9,9.35-9.77,14.92-4.08,3.87-19.87,18.84-26.78,14.85-2.68-1.55-5.06-6.56,4.74-49.35C238.13,270.18,245.49,268,248.12,267.84Z"/><path class="cls-7" d="M371.82,280.83H213.36c2.22-9.4,10.34-20.8,22-30.62h114C361.16,260,369.41,271.44,371.82,280.83Z"/><path class="cls-12" d="M371.82,280.83c13.93,32,11.76,44,6.62,48.91-10.54,10-32-11.89-83.79-21.52-41.67-7.74-76.18-2.29-81.26-18.07a17.37,17.37,0,0,1,0-9.32H371.82Z"/><path class="cls-13" d="M349.36,250.21h-114c14.59-12.25,34.71-22,55.83-22.31C313.19,227.6,334.2,237.59,349.36,250.21Z"/><path class="cls-10" d="M272.42,426.34a49.63,49.63,0,0,0,36.62.2"/><path class="cls-14" d="M290.73,439.07l-6.08-10.52,12.12,0.07Z"/></svg>