<svg id="Layer_1" data-name="Layer 1" xmlns="http://www.w3.org/2000/svg" viewBox="0 0 595.28 841.89"><defs><style>.cls-1{fill:#ed1c24;}.cls-2{fill:#fff;}.cls-3{fill:#39b54a;}.cls-4,.cls-9{fill:none;stroke:#231f20;}.cls-4{stroke-miterlimit:10;stroke-width:3px;}.cls-5{fill:#231f20;}.cls-6{fill:#fccb7f;}.cls-7{fill:#ea8048;}.cls-8{fill:#ffb5a3;}.cls-9{stroke-linecap:round;stroke-linejoin:round;stroke-width:2px;}.cls-10{fill:#c49a6c;}.cls-11{fill:#ef5050;}.cls-12{fill:#8dc63f;}.cls-13{fill:#e8d631;}.cls-14{fill:#1c75bc;}</style></defs><title>icons</title><path class="cls-1" d="M370.76,186.21c70.17,32,119.09,104.06,119.09,187.76S440.93,529.69,370.76,561.73V186.21Z"/><path class="cls-2" d="M370.76,186.21V561.73a197.15,197.15,0,0,1-163.51,0V186.21A197.15,197.15,0,0,1,370.76,186.21Z"/><path class="cls-3" d="M207.25,186.21V561.73c-70.17-32-119.09-104-119.09-187.76S137.08,218.26,207.25,186.21Z"/><path class="cls-4" d="M207.25,186.21C137.08,218.26,88.16,290.27,88.16,374s48.92,155.72,119.09,187.76"/><path class="cls-4" d="M370.76,561.73c70.17-32,119.09-104,119.09-187.76S440.93,218.26,370.76,186.21"/><path class="cls-4" d="M370.76,186.21a197.15,197.15,0,0,0-163.51,0V561.73a197.15,197.15,0,0,0,163.51,0V186.21Z"/><path class="cls-5" d="M260.34,276.76a75.39,75.39,0,0,1,27.51-4.28A73.19,73.19,0,0,1,343,298.83a72.31,72.31,0,0,1,9.73,13.75,60.47,60.47,0,0,1,4.32,10.17c4.78,14.8,5.37,34.73,5.53,39.94,0.07,2.51.07,4.71,0.34,8.5,0.71,9.92,2.48,18.1,3.92,25.94,1,5.37,2.39,11.64,4.69,20,4.3,15.59,9.5,24.16,11.09,41.74A112.67,112.67,0,0,1,381,491c-2.3,12.53-5.36,18.16-7.77,21.72-3.55,5.25-6.32,9.32-11.54,11.44-9.16,3.72-15.07-2.86-30.19-1.05-22,2.63-22,15.92-42.67,19.26-20.94,3.39-38.33-7.48-50.35-15-12.74-8-25-15.59-33.28-33.18-1.76-3.71-11.27-23.81-7.68-47.09,2.74-17.76,13.19-38.41,14.51-54.58,1.06-13-1-16.59-2-26h0a71.83,71.83,0,0,1-.56-10.43c1-38,23.86-61.31,23.86-61.31A71.33,71.33,0,0,1,260.34,276.76Z"/><rect class="cls-6" x="227.96" y="290.55" width="116.69" height="144.49" rx="53.35" ry="53.35"/><path class="cls-5" d="M259.62,279c-1.41,1.44-12.09,12.58-9.36,25,3.66,16.61,28.25,21,34.75,21,2,0,4.08-.2,4.08-0.2,6.68-1.67,11.66-3,13.1-3.65,7.4-3.21,23.51-3.73,29.63,3.25,6,6.81-3.54,13.93.82,33.44,0,0,2.66,12.18,1.35,18.74a31.32,31.32,0,0,1-3.74,9.8c1.11,0.54,24.87-26.19,20.34-55.46-3-19.44-17.64-32.41-22.78-36.7C300.44,271.29,265.27,277.83,259.62,279Z"/><circle class="cls-5" cx="261.54" cy="354.55" r="8.24"/><circle class="cls-5" cx="313.93" cy="354.55" r="8.24"/><path class="cls-7" d="M295,375.46c0,1.66-3.13,3-7,3s-7-1.35-7-3"/><path class="cls-1" d="M303,404.1c0,6.21-6.52,11.24-14.56,11.24s-14.56-5-14.56-11.24"/><path class="cls-1" d="M273.84,404.56c-1-4.27,0-8.33,2.63-10.14a7.44,7.44,0,0,1,4.61-1.06c3.86,0.26,4.27,3,7.39,3.16s4.11-2.77,8.13-2.54a7,7,0,0,1,3.53,1.07c2.53,1.72,3.57,5.47,2.82,9.5"/><path class="cls-2" d="M276.92,402.56c0.26-1.79,7-2.44,9.68-2.56,6.05-.28,13.46,1.19,13.69,3.29,0.17,1.55-3.58,3.15-6.1,3.78C286.17,409.08,276.6,404.77,276.92,402.56Z"/><rect class="cls-8" x="307.41" y="367.51" width="19.48" height="9.45" rx="4.33" ry="4.33"/><rect class="cls-8" x="248.97" y="367.51" width="19.48" height="9.45" rx="4.33" ry="4.33"/><rect class="cls-6" x="269.78" y="416.15" width="35.91" height="46.1" rx="11.44" ry="11.44"/><path class="cls-6" d="M222.45,510.46c-0.13-4.94-.48-34.57,19.52-51.69,13.17-11.27,28.25-11.21,45.76-11.14,18.38,0.08,34.5.14,47.9,12.7,18.49,17.31,17.62,45.08,17.39,50.13"/><path class="cls-9" d="M249,347.12c0.25-.39,5.07-7.74,13.66-7.53A16.07,16.07,0,0,1,274,345"/><path class="cls-9" d="M326.48,346.47c-0.27-.38-5.45-7.47-14-6.84a16.07,16.07,0,0,0-11.06,6"/><path class="cls-5" d="M245.36,290.07c4.08-.23,8.09,4.13,9.79,7.34,2.09,3.95,1.13,7.38-1.38,22-2.47,14.41-1.95,13.68-2.7,15.48C246,347,236.83,348.75,237.38,354.87c0.68,7.58,15,8.41,16.14,16.76,0.69,5-3.9,9.35-9.77,14.92-4.08,3.87-19.87,18.84-26.78,14.85-2.68-1.55-5.06-6.56,4.74-49.35C235.37,292.41,242.74,290.22,245.36,290.07Z"/><path class="cls-10" d="M242.5,310.87c-22-28.87,13.8-93.62,42.81-93.53,28,0.09,64.11,60.6,42.31,91.17C310.23,332.9,259.5,333.22,242.5,310.87Z"/><polygon class="cls-11" points="285.12 273.94 307.69 313.03 262.55 313.03 285.12 273.94"/><polygon class="cls-11" points="305.69 273.45 328.26 312.55 283.12 312.55 305.69 273.45"/><polygon class="cls-11" points="323.96 273.45 346.53 312.55 301.39 312.55 323.96 273.45"/><polygon class="cls-11" points="263.94 273.94 286.51 313.03 241.37 313.03 263.94 273.94"/><polygon class="cls-11" points="244.62 273.94 267.19 313.03 222.05 313.03 244.62 273.94"/><path class="cls-10" d="M281,291.23c-44.42.11-67.78-6.33-97.56,9.39l-0.77.41,197-1C353.39,283.46,328.37,291.11,281,291.23Z"/><path class="cls-10" d="M173,310.14a3,3,0,0,1,3-3l209.78-1.06h0a3,3,0,0,1,1,5.82h2.15a4.6,4.6,0,0,0,.37-1.41c0.11-1.31-.37-2.8-2.21-4.75a3,3,0,0,1-1.28.3L176,307.07h0a3,3,0,0,1-1.48-.4,5.1,5.1,0,0,0-1.7,3.79,4.36,4.36,0,0,0,.79,2.17h0.73A3,3,0,0,1,173,310.14Z"/><path class="cls-10" d="M281,329.69c34.84,0.15,81.61-3.58,100.17-11.79l-197.74.69C203.3,325.75,247,329.55,281,329.69Z"/><path class="cls-12" d="M388.76,309a3,3,0,0,0-3-3h0L176,307.12a3,3,0,0,0-1.64,5.5l212.44-.74A3,3,0,0,0,388.76,309Z"/><path class="cls-11" d="M176,307.07L385.77,306a3,3,0,0,0,1.28-.3,35.25,35.25,0,0,0-6.19-4.9c-0.4-.27-0.81-0.51-1.21-0.76l-197,1c-4,2.18-6.68,4-8.21,5.63a3,3,0,0,0,1.48.4h0Z"/><path class="cls-11" d="M177,315.61a35.58,35.58,0,0,0,6.48,3l197.74-.69a23.79,23.79,0,0,0,5.23-3Z"/><path class="cls-11" d="M177,315.61l209.45-.73a8,8,0,0,0,2.47-3h-2.15a3,3,0,0,1-1,.18L176,313.12h0a3,3,0,0,1-1.66-.5h-0.73A10.89,10.89,0,0,0,177,315.61Z"/><path class="cls-11" d="M176,313.12h0l209.78-1.06a3,3,0,0,0,1-.18l-212.44.74A3,3,0,0,0,176,313.12Z"/><circle class="cls-13" cx="190.12" cy="309.34" r="5.46"/><circle class="cls-13" cx="208.81" cy="309.34" r="5.46"/><circle class="cls-13" cx="230.78" cy="309.34" r="5.46"/><circle class="cls-13" cx="252.76" cy="309.17" r="5.46"/><circle class="cls-13" cx="272.88" cy="309.17" r="5.46"/><circle class="cls-13" cx="295.26" cy="309.17" r="5.46"/><circle class="cls-13" cx="317.64" cy="309.17" r="5.46"/><circle class="cls-13" cx="337.77" cy="309.17" r="5.46" transform="translate(-118.65 345.99) rotate(-47.08)"/><circle class="cls-13" cx="358.53" cy="309.34" r="5.46"/><circle class="cls-13" cx="377.87" cy="309.17" r="5.46" transform="translate(-35.09 569.62) rotate(-71.53)"/><path class="cls-5" d="M268.89,383.33c0.44-.64,2.8,1.89,6,1.31,1.71-.31,1.59-1.12,6-3.59,2.82-1.58,3.83-1.78,4.78-1.47s1.37,1.13,2.47,1.14,1.49-.83,2.62-1.14c0.84-.24,1.76-0.09,4,1.14,4.15,2.27,4.09,3.46,6,3.92,3.26,0.78,5.76-2.06,6.33-1.31s-1.31,3.79-4,5.55a9.61,9.61,0,0,1-6.63,1.63c-3.83-.61-4.9-3.68-7.71-3.1-1.24.25-1.07,0.86-3.24,1.8a14,14,0,0,1-5.4,1.14,12.71,12.71,0,0,1-7.1-2C270.43,386.69,268.46,383.95,268.89,383.33Z"/><path class="cls-10" d="M222,505.75H353.51c0,0.72,0,1.45,0,2.2,0,1.23-.1,2.28-0.16,3.07H222C221.94,509.48,222,507.7,222,505.75Z"/><path class="cls-11" d="M353.51,505.75H222c0.09-2.14.28-4.5,0.62-7H353.18C353.39,500.94,353.51,503.3,353.51,505.75Z"/><path class="cls-10" d="M352.61,495c-0.05-.4-0.18-1.52-0.46-3.16h0.1c0.38,2.12.71,4.42,0.93,6.86H222.65c0.27-2,.62-4.09,1.1-6.28,0-.19.09-0.38,0.13-0.58H351.8C352.21,493.42,352.51,494.6,352.61,495Z"/><path class="cls-10" d="M352.61,495c-0.1-.41-0.4-1.59-0.81-3.16h0.35C352.43,493.49,352.56,494.61,352.61,495Z"/><path class="cls-11" d="M352.25,491.85h-0.1c-0.31-1.82-.8-4.26-1.56-7h0.06C351.21,486.83,351.77,489.2,352.25,491.85Z"/><path class="cls-12" d="M352.15,491.85H351.8c-0.51-2-1.2-4.58-1.84-7h0.63C351.35,487.59,351.84,490,352.15,491.85Z"/><path class="cls-12" d="M351.8,491.85H223.88c0.43-1.93,1-4.36,1.74-7H350C350.6,487.27,351.29,489.87,351.8,491.85Z"/><path class="cls-14" d="M350.65,484.81h-0.06a64.44,64.44,0,0,0-2.31-6.86h0.08A58.76,58.76,0,0,1,350.65,484.81Z"/><path class="cls-10" d="M350.59,484.81H350c-0.77-2.95-1.47-5.68-1.76-6.86h0.08A64.44,64.44,0,0,1,350.59,484.81Z"/><path class="cls-10" d="M350,484.81H225.62c0.61-2.17,1.34-4.5,2.25-6.86H348.2C348.49,479.13,349.19,481.86,350,484.81Z"/><path class="cls-11" d="M348.36,478h-0.08c-0.06-.15-0.12-0.31-0.19-0.46a0.43,0.43,0,0,1,0-.17S348.18,477.54,348.36,478Z"/><path class="cls-11" d="M348.09,477.49c0.07,0.15.13,0.31,0.19,0.46H348.2C348.15,477.75,348.11,477.59,348.09,477.49Z"/><path class="cls-11" d="M348.2,478H227.87a56.18,56.18,0,0,1,3.23-7H344.85a51.32,51.32,0,0,1,3.24,6.58C348.11,477.59,348.15,477.75,348.2,478Z"/><path class="cls-10" d="M344.85,470.91H231.1c2.58-4.66,6-8.9,10.52-11.59,12.19-7.22,19.88,4.26,46.91,4.11,26.8-.14,34.06-11.52,45.29-4.37A34.61,34.61,0,0,1,344.85,470.91Z"/></svg>