<svg id="Layer_1" data-name="Layer 1" xmlns="http://www.w3.org/2000/svg" viewBox="0 0 595.28 841.89"><defs><style>.cls-1,.cls-8{fill:#ed1c24;}.cls-1,.cls-11,.cls-2,.cls-3{stroke:#231f20;}.cls-1,.cls-11,.cls-14,.cls-2{stroke-linecap:round;stroke-linejoin:round;}.cls-1{stroke-width:2.99px;}.cls-2{fill:#065a93;}.cls-2,.cls-3{stroke-width:3px;}.cls-3,.cls-9{fill:#fff;}.cls-3{stroke-miterlimit:10;}.cls-4{fill:#f2f270;}.cls-5{fill:#fccb7f;}.cls-6{fill:#231f20;}.cls-7{fill:#ea8048;}.cls-10{fill:#ffb5a3;}.cls-11,.cls-14{fill:none;}.cls-11{stroke-width:2px;}.cls-12{fill:#bc2820;}.cls-13{fill:#5090ab;}.cls-14{stroke:#3c2415;stroke-width:1.22px;}</style></defs><title>icons</title><path class="cls-1" d="M296,195.79c-81.3,0-151.39,49.44-183.55,120.74H479.51C447.34,245.23,377.25,195.79,296,195.79Z"/><path class="cls-2" d="M296,613c75.86,0,142-43.05,176.6-106.74H119.35C154,569.92,220.09,613,296,613Z"/><path class="cls-3" d="M479.51,316.53H112.4a214.61,214.61,0,0,0,7,189.7h353.2A214.61,214.61,0,0,0,479.51,316.53Z"/><path class="cls-4" d="M270.72,289.67a75.39,75.39,0,0,1,27.51-4.28,73.19,73.19,0,0,1,55.18,26.36,72.29,72.29,0,0,1,9.73,13.75,60.46,60.46,0,0,1,4.32,10.17c4.78,14.8,5.37,34.73,5.53,39.94,0.07,2.51.07,4.71,0.34,8.5,0.71,9.92,2.48,18.1,3.92,25.94,1,5.37,2.39,11.64,4.69,20,4.3,15.59,9.5,24.16,11.09,41.74a112.66,112.66,0,0,1-1.71,32.11C389,516.41,386,522,383.57,525.59,380,530.84,377.25,534.92,372,537c-9.16,3.72-15.07-2.86-30.19-1.05-22,2.63-22,15.92-42.67,19.26-20.94,3.39-38.33-7.48-50.35-15-12.74-8-25-15.59-33.28-33.18-1.75-3.71-11.27-23.81-7.68-47.09,2.74-17.76,13.19-38.41,14.51-54.58,1.06-13-1-16.59-2-26h0a71.9,71.9,0,0,1-.56-10.43c1-38,23.86-61.31,23.86-61.31A71.33,71.33,0,0,1,270.72,289.67Z"/><rect class="cls-5" x="237.56" y="302.85" width="116.69" height="144.49" rx="53.35" ry="53.35"/><path class="cls-4" d="M270,291.88c-1.41,1.44-12.09,12.58-9.36,25,3.66,16.61,28.25,21,34.75,21,2,0,4.08-.2,4.08-0.2,6.68-1.67,11.66-3,13.1-3.65,7.4-3.21,23.51-3.73,29.63,3.25,6,6.81-3.54,13.93.82,33.44,0,0,2.66,12.18,1.35,18.74a31.32,31.32,0,0,1-3.74,9.8c1.11,0.54,24.87-26.19,20.34-55.46-3-19.44-17.64-32.41-22.78-36.7C310.82,284.2,275.65,290.74,270,291.88Z"/><circle class="cls-6" cx="271.92" cy="367.47" r="8.24"/><circle class="cls-6" cx="324.32" cy="367.47" r="8.24"/><path class="cls-7" d="M305.42,388.37c0,1.66-3.13,3-7,3s-7-1.35-7-3"/><path class="cls-8" d="M313.34,417c0,6.21-6.52,11.24-14.56,11.24s-14.56-5-14.56-11.24"/><path class="cls-8" d="M284.23,417.47c-1-4.27,0-8.33,2.63-10.14a7.44,7.44,0,0,1,4.61-1.06c3.86,0.26,4.27,3,7.39,3.16s4.11-2.77,8.13-2.54a7,7,0,0,1,3.53,1.07c2.53,1.72,3.57,5.47,2.82,9.5"/><path class="cls-9" d="M287.3,415.47c0.26-1.79,7-2.44,9.68-2.56,6.05-.28,13.46,1.19,13.69,3.29,0.17,1.55-3.58,3.15-6.1,3.78C296.55,422,287,417.68,287.3,415.47Z"/><rect class="cls-10" x="317.79" y="380.43" width="19.48" height="9.45" rx="4.33" ry="4.33"/><rect class="cls-10" x="259.36" y="380.43" width="19.48" height="9.45" rx="4.33" ry="4.33"/><rect class="cls-5" x="280.17" y="429.07" width="35.91" height="46.1" rx="11.44" ry="11.44"/><path class="cls-11" d="M259.42,360c0.25-.39,5.07-7.74,13.66-7.53a16.07,16.07,0,0,1,11.35,5.44"/><path class="cls-4" d="M255.74,303c4.08-.23,8.09,4.13,9.79,7.34,2.09,3.95,1.13,7.38-1.38,22-2.47,14.41-1.95,13.68-2.7,15.48-5.09,12.12-14.24,13.81-13.69,19.94,0.68,7.58,15,8.41,16.14,16.76,0.69,5-3.9,9.35-9.77,14.92-4.08,3.87-19.87,18.84-26.78,14.85-2.68-1.55-5.06-6.56,4.74-49.35C245.75,305.32,253.12,303.13,255.74,303Z"/><path class="cls-12" d="M296.88,261.52c27.85-.36,52.73,17.15,63.74,37.22,11.16,20.35,3.49,35,16.28,45.11,16.61,13.09,41.71-2,45.53,5.21,4.8,9-31.06,46.29-50.62,39-13.71-5.13-4.9-29-24.82-52.69-3.93-4.68-21.84-24.71-48.16-24.19-26.74.53-43.74,21.9-45.52,24.21-19.59,25.43-6.92,51.91-20.18,58.79C214.38,403.9,169.63,361,175,350.68c4-7.63,29.73,7.23,46.35-6.58,13.8-11.46,4-28.43,16.9-49.94C249.56,275.26,273,261.83,296.88,261.52Z"/><path class="cls-11" d="M336.86,359.38c-0.27-.38-5.45-7.47-14-6.84a16.07,16.07,0,0,0-11.06,6"/><rect class="cls-5" x="264.92" y="470.72" width="66.27" height="31.33"/><path class="cls-5" d="M352.59,480.88a47.63,47.63,0,0,0-5.82-6.91v3.55A15.28,15.28,0,0,1,352.59,480.88Z"/><path class="cls-5" d="M297.56,473a316.28,316.28,0,0,1,32.8,1.31v-10.4c-9.75-3.27-20.54-3.32-32.24-3.36-12.19-.05-23.19-0.09-33.2,3.68v10.28A289.09,289.09,0,0,1,297.56,473Z"/><path class="cls-5" d="M248.51,475.39a49,49,0,0,0-4.73,6,16.28,16.28,0,0,1,4.73-3.06v-2.94Z"/><path class="cls-5" d="M363,511.17l0.42,11.14A82.34,82.34,0,0,0,363,511.17Z"/><path class="cls-9" d="M363.11,508.39c0-.21-0.08-0.51-0.13-0.88a69.49,69.49,0,0,0-9-24.94,9.62,9.62,0,0,0-1.35-1.68c7,10,9.65,21.63,10.56,30.29Z"/><path class="cls-9" d="M363.49,523.37l0-1.06c0,0.42,0,.78,0,1.06h0.08Z"/><path class="cls-9" d="M243.78,481.39a11.41,11.41,0,0,0-1.41,1.64c-6.5,9.26-8.85,20.55-8.85,20.55-0.08.38-.14,0.68-0.18,0.89a58.75,58.75,0,0,0-.54,18.89h0C232.73,519.28,232.48,498.23,243.78,481.39Z"/><path class="cls-9" d="M363.61,511.06c-0.91-12-4.37-21.63-7.77-27a42.56,42.56,0,0,0-4.38-5.71,36.32,36.32,0,0,0-4.62-4.15q0,6.12-.07,12.24v37H363.6A80.35,80.35,0,0,0,363.61,511.06Z"/><path class="cls-9" d="M248.51,486.33q0-5.46,0-10.92a46.46,46.46,0,0,0-4,4.53c-7.41,9.6-9.26,19.82-10.52,27.22a86.7,86.7,0,0,0-1.19,16.21h15.68v-37Z"/><path class="cls-13" d="M264.92,474.51V464.22a41.7,41.7,0,0,0-12.57,7.46,46.18,46.18,0,0,0-3.84,3.71v2.94C252.06,476.73,257.24,475.43,264.92,474.51Z"/><path class="cls-13" d="M248.51,478.33v8A108.57,108.57,0,0,0,264.92,494V474.51C257.24,475.43,252.06,476.73,248.51,478.33Z"/><path class="cls-13" d="M346.77,477.52V474c-0.25-.24-0.49-0.49-0.75-0.73a41.93,41.93,0,0,0-15.67-9.33v10.4C338.18,475.13,343.32,476.27,346.77,477.52Z"/><path class="cls-13" d="M330.36,494a108.65,108.65,0,0,0,16.41-7.62v-8.8c-3.45-1.25-8.58-2.39-16.41-3.21V494Z"/><path class="cls-13" d="M248.51,505.56h16.41V494a108.57,108.57,0,0,1-16.41-7.63v19.23Z"/><path class="cls-13" d="M330.36,505.56h16.41V486.33A108.65,108.65,0,0,1,330.36,494v11.61Z"/><path class="cls-13" d="M264.92,478.33V496.1H248.51v27.27h36.92V486.13A71.4,71.4,0,0,1,264.92,478.33Z"/><path class="cls-13" d="M346.77,496.1H330.36V478.33a70.77,70.77,0,0,1-22,8.09v37h38.41V496.1Z"/><path class="cls-9" d="M296.88,487.37a60.84,60.84,0,0,1-11.45-1.25v37.25h22.93v-37A60.49,60.49,0,0,1,296.88,487.37Z"/><path class="cls-14" d="M284.92,488.07c7.35,1.7,13.46,3.15,18.07,4.25,3.89,0.93,6,1.45,6,2.14,0,2.29-23.77,3-23.79,5.27s23.27,4.17,23.22,6.21c0,0.78-3.47,1-11,2.71-6.61,1.54-12.22,2.84-12.21,4.11,0,2.51,23.14,2.94,23.16,5.32,0,1.17-5.47,2.27-10,3.17a91.53,91.53,0,0,1-13.14,1.66"/><path class="cls-14" d="M308.89,488.4c-2.11.53-5.31,1.29-9.21,2-9.33,1.8-14.27,1.93-14.29,2.89,0,0.26.36,0.92,11.14,3.36,8.59,1.94,11.43,2.21,11.46,3,0.07,2.32-22.64,4.59-22.6,7.14s22.81,2.85,22.85,5.6c0,1.42-6,2.81-8.44,3.36-8.72,2-14.41,1-14.48,2s5.35,2.69,10.2,3.73a59.75,59.75,0,0,0,12.86,1.35"/></svg>