<svg id="Layer_1" data-name="Layer 1" xmlns="http://www.w3.org/2000/svg" viewBox="0 0 595.28 841.89"><defs><style>.cls-1,.cls-7{fill:#ed1c24;}.cls-1,.cls-10,.cls-2{stroke:#231f20;stroke-linecap:round;stroke-linejoin:round;}.cls-1,.cls-2{stroke-width:2.99px;}.cls-2{fill:#fff200;}.cls-3{fill:#231f20;}.cls-10,.cls-4{fill:none;stroke-width:2px;}.cls-4{stroke:#fbb040;stroke-miterlimit:10;}.cls-5{fill:#fccb7f;}.cls-6{fill:#ea8048;}.cls-8{fill:#fff;}.cls-9{fill:#ffb5a3;}</style></defs><title>icons</title><path class="cls-1" d="M291.95,182.42c-81.3,0-151.39,49.44-183.55,120.74H475.5C443.34,231.86,373.25,182.42,291.95,182.42Z"/><path class="cls-1" d="M291.95,599.6c75.86,0,142-43.05,176.6-106.74H115.35C150,556.55,216.08,599.6,291.95,599.6Z"/><path class="cls-2" d="M475.5,303.16H108.4a214.61,214.61,0,0,0,7,189.7h353.2A214.61,214.61,0,0,0,475.5,303.16Z"/><path class="cls-3" d="M264.26,273.69a75.39,75.39,0,0,1,27.51-4.28A73.19,73.19,0,0,1,347,295.76a72.31,72.31,0,0,1,9.73,13.75A60.47,60.47,0,0,1,361,319.68c4.78,14.8,5.37,34.73,5.53,39.94,0.07,2.51.07,4.71,0.34,8.5,0.71,9.92,2.48,18.1,3.92,25.94,1,5.37,2.39,11.64,4.69,20,4.3,15.59,9.5,24.16,11.09,41.74a112.67,112.67,0,0,1-1.71,32.11c-2.3,12.53-5.36,18.16-7.77,21.72-3.55,5.25-6.32,9.32-11.54,11.44-9.16,3.72-15.07-2.86-30.19-1.05-22,2.63-22,15.92-42.67,19.26-20.94,3.39-38.33-7.48-50.35-15-12.74-8-25-15.59-33.28-33.18-1.76-3.71-11.27-23.81-7.68-47.09,2.74-17.76,13.19-38.41,14.51-54.58,1.06-13-1-16.59-2-26h0a71.83,71.83,0,0,1-.56-10.43c1-38,23.86-61.31,23.86-61.31A71.33,71.33,0,0,1,264.26,273.69Z"/><ellipse class="cls-4" cx="347.78" cy="384.27" rx="9.43" ry="11.41"/><rect class="cls-5" x="231.1" y="286.87" width="116.69" height="144.49" rx="53.35" ry="53.35"/><path class="cls-3" d="M263.54,275.9c-1.41,1.44-12.09,12.58-9.36,25,3.66,16.61,28.25,21,34.75,21,2,0,4.08-.2,4.08-0.2,6.68-1.67,11.66-3,13.1-3.65,7.4-3.21,23.51-3.73,29.63,3.25,6,6.81-3.54,13.93.82,33.44,0,0,2.66,12.18,1.35,18.74a31.32,31.32,0,0,1-3.74,9.8c1.11,0.54,24.87-26.19,20.34-55.46-3-19.44-17.64-32.41-22.78-36.7C304.36,268.22,269.19,274.76,263.54,275.9Z"/><circle class="cls-3" cx="265.46" cy="351.49" r="8.24"/><circle class="cls-3" cx="317.86" cy="351.49" r="8.24"/><path class="cls-6" d="M299,372.4c0,1.66-3.13,3-7,3s-7-1.35-7-3"/><path class="cls-7" d="M306.88,401c0,6.21-6.52,11.24-14.56,11.24s-14.56-5-14.56-11.24"/><path class="cls-7" d="M277.77,401.49c-1-4.27,0-8.33,2.63-10.14A7.44,7.44,0,0,1,285,390.3c3.86,0.26,4.27,3,7.39,3.16s4.11-2.77,8.13-2.54a7,7,0,0,1,3.53,1.07c2.53,1.72,3.57,5.47,2.82,9.5"/><path class="cls-8" d="M280.84,399.49c0.26-1.79,7-2.44,9.68-2.56,6.05-.28,13.46,1.19,13.69,3.29,0.17,1.55-3.58,3.15-6.1,3.78C290.09,406,280.53,401.7,280.84,399.49Z"/><rect class="cls-9" x="311.33" y="364.45" width="19.48" height="9.45" rx="4.33" ry="4.33"/><rect class="cls-9" x="252.9" y="364.45" width="19.48" height="9.45" rx="4.33" ry="4.33"/><rect class="cls-5" x="273.71" y="413.09" width="35.91" height="46.1" rx="11.44" ry="11.44"/><path class="cls-5" d="M226.37,507.39c-0.13-4.94-.48-34.57,19.52-51.69,13.17-11.27,28.25-11.21,45.76-11.14,18.38,0.08,34.5.14,47.9,12.7,18.49,17.31,17.62,45.08,17.39,50.13"/><path class="cls-10" d="M253,344.05c0.25-.39,5.07-7.74,13.66-7.53A16.07,16.07,0,0,1,278,342"/><path class="cls-10" d="M330.4,343.4c-0.27-.38-5.45-7.47-14-6.84a16.07,16.07,0,0,0-11.06,6"/><path class="cls-7" d="M226.34,507.39a77.9,77.9,0,0,1,1.77-18.59c1.9-8.67,6.31-28.82,17.77-33.1,14.31-5.34,24.09,20.31,46.8,20,22.26-.28,30.72-25.07,44.93-20.28s18.37,33.65,18.85,37a70.5,70.5,0,0,1,.56,15"/><ellipse class="cls-4" cx="231.1" cy="388.31" rx="9.43" ry="11.41"/><path class="cls-3" d="M249.28,287c4.08-.23,8.09,4.13,9.79,7.34,2.09,3.95,1.13,7.38-1.38,22-2.47,14.41-1.95,13.68-2.7,15.48-5.09,12.12-14.24,13.81-13.69,19.94,0.68,7.58,15,8.41,16.14,16.76,0.69,5-3.9,9.35-9.77,14.92-4.08,3.87-19.87,18.84-26.78,14.85-2.68-1.55-5.06-6.56,4.74-49.35C239.29,289.34,246.66,287.15,249.28,287Z"/><path class="cls-3" d="M226.32,507.35c-1.55-5.59,7.55-14.64,14.6-13.78,5.63,0.69,6.56,7.29,11.88,7.4s7.19-7.25,12.82-7.3c5.8,0,7.74,7.75,13.42,7.69s7.38-8,13.14-8.11,7.56,7.55,13.14,7.47c5.85-.08,7.87-8.5,13.14-8.33,4.94,0.16,5.77,7.65,11.14,8.11,6.44,0.55,9.19-8.64,16-8.33,6.06,0.28,13.23,8.27,11.55,15.17C356,512,351,515.4,346.43,515.88c-7,.73-9.31-5.72-15.71-4.91-6.62.84-7.59,8.05-13.14,8.11-5.29.06-7-6.49-12.28-6.4-5.48.09-6.66,7.11-12.56,7.47-5.65.35-7.52-5.9-14-6s-8.9,6.34-14.28,5.76-5-7.46-11.71-9.18c-6.43-1.66-9.58,4-17.7,2.35C234.25,512.94,227.47,511.49,226.32,507.35Z"/><circle class="cls-8" cx="237.07" cy="486.58" r="3.45"/><circle class="cls-8" cx="337.3" cy="465.4" r="3.45"/><circle class="cls-8" cx="313.02" cy="488.45" r="3.45"/><circle class="cls-8" cx="252.9" cy="485" r="3.45"/><circle class="cls-8" cx="262.63" cy="475.97" r="3.45"/><circle class="cls-8" cx="329.09" cy="483.13" r="3.45"/><circle class="cls-8" cx="280.84" cy="481.11" r="3.45"/><circle class="cls-8" cx="249.45" cy="466.77" r="3.45"/><circle class="cls-8" cx="344.19" cy="485" r="3.45"/><circle class="cls-8" cx="296.95" cy="484.56" r="3.45"/><circle class="cls-8" cx="269.53" cy="487.2" r="3.45"/><circle class="cls-8" cx="313.06" cy="478.11" r="3.45"/><ellipse class="cls-7" cx="335.85" cy="318.32" rx="14.78" ry="13.91"/><ellipse class="cls-3" cx="335.85" cy="318.32" rx="6.93" ry="6.53"/></svg>